<?xml version="1.0" encoding="UTF-8"?><svg xmlns="http://www.w3.org/2000/svg" xmlns:xlink="http://www.w3.org/1999/xlink" stroke-dasharray="none" shape-rendering="auto" font-family="'Dialog'" width="877" text-rendering="auto" fill-opacity="1" contentScriptType="text/ecmascript" color-interpolation="auto" color-rendering="auto" preserveAspectRatio="xMidYMid meet" font-size="12" viewBox="0 0 877 1020" fill="black" stroke="black" image-rendering="auto" stroke-miterlimit="10" zoomAndPan="magnify" version="1.0" stroke-linecap="square" stroke-linejoin="miter" contentStyleType="text/css" font-style="normal" height="1020" stroke-width="1" stroke-dashoffset="0" font-weight="normal" stroke-opacity="1">
    <!--Generated by the Batik Graphics2D SVG Generator-->
    <defs id="genericDefs"/>
    <g>
        <defs id="defs1">
            <linearGradient x1="10" x2="10" y1="10" gradientUnits="userSpaceOnUse" y2="811" xlink:type="simple" xlink:actuate="onLoad" id="linearGradient1" xlink:show="other" spreadMethod="pad">
                <stop stop-opacity="1" stop-color="white" offset="0%"/>
                <stop stop-opacity="1" stop-color="white" offset="100%"/>
            </linearGradient>
            <linearGradient x1="90" x2="90" y1="40" gradientUnits="userSpaceOnUse" y2="792" xlink:type="simple" xlink:actuate="onLoad" id="linearGradient2" xlink:show="other" spreadMethod="pad">
                <stop stop-opacity="1" stop-color="white" offset="0%"/>
                <stop stop-opacity="1" stop-color="rgb(195,209,213)" offset="100%"/>
            </linearGradient>
            <linearGradient x1="130" x2="130" y1="90" gradientUnits="userSpaceOnUse" y2="610" xlink:type="simple" xlink:actuate="onLoad" id="linearGradient3" xlink:show="other" spreadMethod="pad">
                <stop stop-opacity="1" stop-color="white" offset="0%"/>
                <stop stop-opacity="1" stop-color="rgb(195,209,213)" offset="100%"/>
            </linearGradient>
            <linearGradient x1="290" x2="290" y1="40" gradientUnits="userSpaceOnUse" y2="792" xlink:type="simple" xlink:actuate="onLoad" id="linearGradient4" xlink:show="other" spreadMethod="pad">
                <stop stop-opacity="1" stop-color="white" offset="0%"/>
                <stop stop-opacity="1" stop-color="rgb(195,209,213)" offset="100%"/>
            </linearGradient>
            <linearGradient x1="330" x2="330" y1="86" gradientUnits="userSpaceOnUse" y2="226" xlink:type="simple" xlink:actuate="onLoad" id="linearGradient5" xlink:show="other" spreadMethod="pad">
                <stop stop-opacity="1" stop-color="white" offset="0%"/>
                <stop stop-opacity="1" stop-color="rgb(195,209,213)" offset="100%"/>
            </linearGradient>
            <linearGradient x1="330" x2="330" y1="329" gradientUnits="userSpaceOnUse" y2="611" xlink:type="simple" xlink:actuate="onLoad" id="linearGradient6" xlink:show="other" spreadMethod="pad">
                <stop stop-opacity="1" stop-color="white" offset="0%"/>
                <stop stop-opacity="1" stop-color="rgb(195,209,213)" offset="100%"/>
            </linearGradient>
            <linearGradient x1="340" x2="340" y1="165" gradientUnits="userSpaceOnUse" y2="206" xlink:type="simple" xlink:actuate="onLoad" id="linearGradient7" xlink:show="other" spreadMethod="pad">
                <stop stop-opacity="1" stop-color="white" offset="0%"/>
                <stop stop-opacity="1" stop-color="rgb(195,209,213)" offset="100%"/>
            </linearGradient>
            <linearGradient x1="340" x2="340" y1="413" gradientUnits="userSpaceOnUse" y2="453" xlink:type="simple" xlink:actuate="onLoad" id="linearGradient8" xlink:show="other" spreadMethod="pad">
                <stop stop-opacity="1" stop-color="white" offset="0%"/>
                <stop stop-opacity="1" stop-color="rgb(195,209,213)" offset="100%"/>
            </linearGradient>
            <linearGradient x1="510" x2="510" y1="40" gradientUnits="userSpaceOnUse" y2="792" xlink:type="simple" xlink:actuate="onLoad" id="linearGradient9" xlink:show="other" spreadMethod="pad">
                <stop stop-opacity="1" stop-color="white" offset="0%"/>
                <stop stop-opacity="1" stop-color="rgb(195,209,213)" offset="100%"/>
            </linearGradient>
            <linearGradient x1="550" x2="550" y1="166" gradientUnits="userSpaceOnUse" y2="206" xlink:type="simple" xlink:actuate="onLoad" id="linearGradient10" xlink:show="other" spreadMethod="pad">
                <stop stop-opacity="1" stop-color="white" offset="0%"/>
                <stop stop-opacity="1" stop-color="rgb(195,209,213)" offset="100%"/>
            </linearGradient>
            <linearGradient x1="710" x2="710" y1="40" gradientUnits="userSpaceOnUse" y2="792" xlink:type="simple" xlink:actuate="onLoad" id="linearGradient11" xlink:show="other" spreadMethod="pad">
                <stop stop-opacity="1" stop-color="white" offset="0%"/>
                <stop stop-opacity="1" stop-color="rgb(195,209,213)" offset="100%"/>
            </linearGradient>
            <linearGradient x1="750" x2="750" y1="414" gradientUnits="userSpaceOnUse" y2="454" xlink:type="simple" xlink:actuate="onLoad" id="linearGradient12" xlink:show="other" spreadMethod="pad">
                <stop stop-opacity="1" stop-color="white" offset="0%"/>
                <stop stop-opacity="1" stop-color="rgb(195,209,213)" offset="100%"/>
            </linearGradient>
            <clipPath clipPathUnits="userSpaceOnUse" id="clipPath1">
                <path d="M10 10 L10 810 L866 810 L866 10 Z"/>
            </clipPath>
            <clipPath clipPathUnits="userSpaceOnUse" id="clipPath2">
                <path d="M7 7 L870 7 L870 814 L7 814 L7 7 Z"/>
            </clipPath>
            <clipPath clipPathUnits="userSpaceOnUse" id="clipPath3">
                <path d="M15 12 L60 12 L60 25 L15 25 L15 12 Z"/>
            </clipPath>
            <clipPath clipPathUnits="userSpaceOnUse" id="clipPath4">
                <path d="M89 39 L191 39 L191 793 L89 793 L89 39 Z"/>
            </clipPath>
            <clipPath clipPathUnits="userSpaceOnUse" id="clipPath5">
                <path d="M90 40 L90 791 L189 791 L189 40 Z"/>
            </clipPath>
            <clipPath clipPathUnits="userSpaceOnUse" id="clipPath6">
                <path d="M125 42 L157 42 L157 55 L125 55 L125 42 Z"/>
            </clipPath>
            <clipPath clipPathUnits="userSpaceOnUse" id="clipPath7">
                <path d="M130 90 L130 609 L149 609 L149 90 Z"/>
            </clipPath>
            <clipPath clipPathUnits="userSpaceOnUse" id="clipPath8">
                <path d="M129 89 L151 89 L151 611 L129 611 L129 89 Z"/>
            </clipPath>
            <clipPath clipPathUnits="userSpaceOnUse" id="clipPath9">
                <path d="M289 39 L391 39 L391 793 L289 793 L289 39 Z"/>
            </clipPath>
            <clipPath clipPathUnits="userSpaceOnUse" id="clipPath10">
                <path d="M290 40 L290 791 L389 791 L389 40 Z"/>
            </clipPath>
            <clipPath clipPathUnits="userSpaceOnUse" id="clipPath11">
                <path d="M307 42 L374 42 L374 55 L307 55 L307 42 Z"/>
            </clipPath>
            <clipPath clipPathUnits="userSpaceOnUse" id="clipPath12">
                <path d="M330 86 L330 225 L349 225 L349 86 Z"/>
            </clipPath>
            <clipPath clipPathUnits="userSpaceOnUse" id="clipPath13">
                <path d="M329 85 L351 85 L351 227 L329 227 L329 85 Z"/>
            </clipPath>
            <clipPath clipPathUnits="userSpaceOnUse" id="clipPath14">
                <path d="M348 103 L399 103 L399 118 L348 118 L348 103 Z"/>
            </clipPath>
            <clipPath clipPathUnits="userSpaceOnUse" id="clipPath15">
                <path d="M330 329 L330 610 L349 610 L349 329 Z"/>
            </clipPath>
            <clipPath clipPathUnits="userSpaceOnUse" id="clipPath16">
                <path d="M329 328 L351 328 L351 612 L329 612 L329 328 Z"/>
            </clipPath>
            <clipPath clipPathUnits="userSpaceOnUse" id="clipPath17">
                <path d="M348 346 L432 346 L432 361 L348 361 L348 346 Z"/>
            </clipPath>
            <clipPath clipPathUnits="userSpaceOnUse" id="clipPath18">
                <path d="M340 165 L340 205 L359 205 L359 165 Z"/>
            </clipPath>
            <clipPath clipPathUnits="userSpaceOnUse" id="clipPath19">
                <path d="M339 164 L361 164 L361 207 L339 207 L339 164 Z"/>
            </clipPath>
            <clipPath clipPathUnits="userSpaceOnUse" id="clipPath20">
                <path d="M340 413 L340 452 L359 452 L359 413 Z"/>
            </clipPath>
            <clipPath clipPathUnits="userSpaceOnUse" id="clipPath21">
                <path d="M339 412 L361 412 L361 454 L339 454 L339 412 Z"/>
            </clipPath>
            <clipPath clipPathUnits="userSpaceOnUse" id="clipPath22">
                <path d="M358 430 L389 430 L389 445 L358 445 L358 430 Z"/>
            </clipPath>
            <clipPath clipPathUnits="userSpaceOnUse" id="clipPath23">
                <path d="M509 39 L611 39 L611 793 L509 793 L509 39 Z"/>
            </clipPath>
            <clipPath clipPathUnits="userSpaceOnUse" id="clipPath24">
                <path d="M510 40 L510 791 L609 791 L609 40 Z"/>
            </clipPath>
            <clipPath clipPathUnits="userSpaceOnUse" id="clipPath25">
                <path d="M513 42 L609 42 L609 55 L513 55 L513 42 Z"/>
            </clipPath>
            <clipPath clipPathUnits="userSpaceOnUse" id="clipPath26">
                <path d="M550 166 L550 205 L569 205 L569 166 Z"/>
            </clipPath>
            <clipPath clipPathUnits="userSpaceOnUse" id="clipPath27">
                <path d="M549 165 L571 165 L571 207 L549 207 L549 165 Z"/>
            </clipPath>
            <clipPath clipPathUnits="userSpaceOnUse" id="clipPath28">
                <path d="M709 39 L811 39 L811 793 L709 793 L709 39 Z"/>
            </clipPath>
            <clipPath clipPathUnits="userSpaceOnUse" id="clipPath29">
                <path d="M710 40 L710 791 L809 791 L809 40 Z"/>
            </clipPath>
            <clipPath clipPathUnits="userSpaceOnUse" id="clipPath30">
                <path d="M732 42 L789 42 L789 55 L732 55 L732 42 Z"/>
            </clipPath>
            <clipPath clipPathUnits="userSpaceOnUse" id="clipPath31">
                <path d="M750 414 L750 453 L769 453 L769 414 Z"/>
            </clipPath>
            <clipPath clipPathUnits="userSpaceOnUse" id="clipPath32">
                <path d="M749 413 L771 413 L771 455 L749 455 L749 413 Z"/>
            </clipPath>
            <clipPath clipPathUnits="userSpaceOnUse" id="clipPath33">
                <path d="M9 9 L868 9 L868 812 L9 812 L9 9 Z"/>
            </clipPath>
            <clipPath clipPathUnits="userSpaceOnUse" id="clipPath34">
                <path d="M-1 -1 L878 -1 L878 1021 L-1 1021 L-1 -1 Z"/>
            </clipPath>
            <clipPath clipPathUnits="userSpaceOnUse" id="clipPath35">
                <path d="M359 443 L378 443 L378 458 L359 458 L359 443 Z"/>
            </clipPath>
            <clipPath clipPathUnits="userSpaceOnUse" id="clipPath36">
                <path d="M192 331 L291 331 L291 344 L192 344 L192 331 Z"/>
            </clipPath>
            <clipPath clipPathUnits="userSpaceOnUse" id="clipPath37">
                <path d="M313 343 L332 343 L332 358 L313 358 L313 343 Z"/>
            </clipPath>
            <clipPath clipPathUnits="userSpaceOnUse" id="clipPath38">
                <path d="M386 217 L523 217 L523 230 L386 230 L386 217 Z"/>
            </clipPath>
            <clipPath clipPathUnits="userSpaceOnUse" id="clipPath39">
                <path d="M349 203 L368 203 L368 218 L349 218 L349 203 Z"/>
            </clipPath>
            <clipPath clipPathUnits="userSpaceOnUse" id="clipPath40">
                <path d="M418 151 L494 151 L494 164 L418 164 L418 151 Z"/>
            </clipPath>
            <clipPath clipPathUnits="userSpaceOnUse" id="clipPath41">
                <path d="M533 163 L552 163 L552 178 L533 178 L533 163 Z"/>
            </clipPath>
            <clipPath clipPathUnits="userSpaceOnUse" id="clipPath42">
                <path d="M169 269 L319 269 L319 282 L169 282 L169 269 Z"/>
            </clipPath>
            <clipPath clipPathUnits="userSpaceOnUse" id="clipPath43">
                <path d="M113 303 L132 303 L132 318 L113 318 L113 303 Z"/>
            </clipPath>
            <clipPath clipPathUnits="userSpaceOnUse" id="clipPath44">
                <path d="M446 391 L837 391 L837 404 L446 404 L446 391 Z"/>
            </clipPath>
            <clipPath clipPathUnits="userSpaceOnUse" id="clipPath45">
                <path d="M743 403 L762 403 L762 418 L743 418 L743 403 Z"/>
            </clipPath>
            <clipPath clipPathUnits="userSpaceOnUse" id="clipPath46">
                <path d="M209 629 L301 629 L301 642 L209 642 L209 629 Z"/>
            </clipPath>
            <clipPath clipPathUnits="userSpaceOnUse" id="clipPath47">
                <path d="M313 603 L332 603 L332 618 L313 618 L313 603 Z"/>
            </clipPath>
        </defs>
        <g font-size="14" fill="url(#linearGradient1)" font-family="'.AppleSystemUIFont'" stroke-linejoin="round" stroke="url(#linearGradient1)" stroke-width="0" stroke-miterlimit="0">
            <rect x="10" y="10" clip-path="url(#clipPath1)" width="857" height="801" stroke="none"/>
        </g>
        <g stroke-width="0.1" font-size="14" font-family="'.AppleSystemUIFont'" stroke-linecap="butt">
            <line clip-path="url(#clipPath2)" fill="none" x1="73" x2="73" y1="10" y2="20"/>
            <line clip-path="url(#clipPath2)" fill="none" x1="73" x2="73" y1="20" y2="20"/>
            <line clip-path="url(#clipPath2)" fill="none" x1="73" x2="69" y1="20" y2="24"/>
            <line clip-path="url(#clipPath2)" fill="none" x1="69" x2="69" y1="24" y2="24"/>
            <line clip-path="url(#clipPath2)" fill="none" x1="69" x2="10" y1="24" y2="24"/>
            <text x="16" font-size="12" y="25" clip-path="url(#clipPath3)" stroke="none" xml:space="preserve">SeqDiag  </text>
            <rect x="90" y="40" clip-path="url(#clipPath4)" fill="none" width="99" height="14" stroke-width="1.1"/>
            <line clip-path="url(#clipPath4)" fill="none" x1="140" x2="140" y1="54" y2="791" stroke-dasharray="5,5" stroke-width="1.1"/>
        </g>
        <g stroke-linecap="butt" font-size="14" fill="url(#linearGradient2)" font-family="'.AppleSystemUIFont'" stroke-dasharray="5,5" stroke="url(#linearGradient2)" stroke-width="1.1">
            <rect x="90" y="40" clip-path="url(#clipPath5)" width="100" opacity="0" height="752" stroke="none"/>
            <text x="126" font-size="12" y="55" clip-path="url(#clipPath6)" fill="black" stroke="none" xml:space="preserve">Tenant</text>
            <rect x="130" y="90" clip-path="url(#clipPath7)" fill="url(#linearGradient3)" width="20" height="520" stroke="none"/>
            <rect x="130" y="90" clip-path="url(#clipPath8)" fill="none" width="19" stroke-dasharray="none" rx="0" ry="0" height="519" stroke="black"/>
            <rect x="290" y="40" clip-path="url(#clipPath9)" fill="none" width="99" stroke-dasharray="none" height="14" stroke="black"/>
            <line clip-path="url(#clipPath9)" fill="none" x1="340" x2="340" y1="54" y2="791" stroke="black"/>
            <rect x="290" y="40" clip-path="url(#clipPath10)" fill="url(#linearGradient4)" width="100" opacity="0" height="752" stroke="none"/>
            <text x="308" font-size="12" y="55" clip-path="url(#clipPath11)" fill="black" stroke="none" xml:space="preserve"> : Orchestrator</text>
            <rect x="330" y="86" clip-path="url(#clipPath12)" fill="url(#linearGradient5)" width="20" height="140" stroke="none"/>
            <rect x="330" y="86" clip-path="url(#clipPath13)" fill="none" width="19" stroke-dasharray="none" rx="0" ry="0" height="139" stroke="black"/>
            <text x="349" y="118" clip-path="url(#clipPath14)" fill="black" stroke-dasharray="none" stroke="none" xml:space="preserve">showLAG</text>
            <rect x="330" y="329" clip-path="url(#clipPath15)" fill="url(#linearGradient6)" width="20" stroke-dasharray="none" height="282" stroke="none"/>
            <rect x="330" y="329" clip-path="url(#clipPath16)" fill="none" width="19" stroke-dasharray="none" rx="0" ry="0" height="281" stroke="black"/>
            <text x="349" y="361" clip-path="url(#clipPath17)" fill="black" stroke-dasharray="none" stroke="none" xml:space="preserve">showSpiderPlot</text>
            <rect x="340" y="165" clip-path="url(#clipPath18)" fill="url(#linearGradient7)" width="20" stroke-dasharray="none" height="41" stroke="none"/>
            <rect x="340" y="165" clip-path="url(#clipPath19)" fill="none" width="19" stroke-dasharray="none" rx="0" ry="0" height="40" stroke="black"/>
            <rect x="340" y="413" clip-path="url(#clipPath20)" fill="url(#linearGradient8)" width="20" stroke-dasharray="none" height="40" stroke="none"/>
            <rect x="340" y="413" clip-path="url(#clipPath21)" fill="none" width="19" stroke-dasharray="none" rx="0" ry="0" height="39" stroke="black"/>
            <text x="359" y="445" clip-path="url(#clipPath22)" fill="black" stroke-dasharray="none" stroke="none" xml:space="preserve">given</text>
            <rect x="510" y="40" clip-path="url(#clipPath23)" fill="none" width="99" stroke-dasharray="none" height="14" stroke="black"/>
            <line clip-path="url(#clipPath23)" fill="none" x1="560" x2="560" y1="54" y2="791" stroke="black"/>
            <rect x="510" y="40" clip-path="url(#clipPath24)" fill="url(#linearGradient9)" width="100" opacity="0" height="752" stroke="none"/>
            <text x="514" font-size="12" y="55" clip-path="url(#clipPath25)" fill="black" stroke="none" xml:space="preserve"> : LayoutApartment...</text>
            <rect x="550" y="166" clip-path="url(#clipPath26)" fill="url(#linearGradient10)" width="20" height="40" stroke="none"/>
            <rect x="550" y="166" clip-path="url(#clipPath27)" fill="none" width="19" stroke-dasharray="none" rx="0" ry="0" height="39" stroke="black"/>
            <rect x="710" y="40" clip-path="url(#clipPath28)" fill="none" width="99" stroke-dasharray="none" height="14" stroke="black"/>
            <line clip-path="url(#clipPath28)" fill="none" x1="760" x2="760" y1="54" y2="791" stroke="black"/>
            <rect x="710" y="40" clip-path="url(#clipPath29)" fill="url(#linearGradient11)" width="100" opacity="0" height="752" stroke="none"/>
            <text x="733" font-size="12" y="55" clip-path="url(#clipPath30)" fill="black" stroke="none" xml:space="preserve"> : SpiderPlot</text>
            <rect x="750" y="414" clip-path="url(#clipPath31)" fill="url(#linearGradient12)" width="20" height="40" stroke="none"/>
            <rect x="750" y="414" clip-path="url(#clipPath32)" fill="none" width="19" stroke-dasharray="none" rx="0" ry="0" height="39" stroke="black"/>
            <rect x="10" y="10" clip-path="url(#clipPath33)" fill="none" width="856" stroke-dasharray="none" rx="0" ry="0" height="800" stroke="black"/>
        </g>
        <g text-rendering="optimizeLegibility" stroke-width="1.1" stroke-dasharray="6.6,3.3" font-family="'.AppleSystemUIFont'" stroke-linecap="butt">
            <line clip-path="url(#clipPath34)" fill="none" x1="750" x2="360" y1="450" y2="450"/>
            <line clip-path="url(#clipPath35)" fill="none" x1="376" x2="360" y1="444" y2="450" stroke-dasharray="none"/>
            <line clip-path="url(#clipPath35)" fill="none" x1="360" x2="376" y1="450" y2="456" stroke-dasharray="none"/>
            <line clip-path="url(#clipPath34)" fill="none" x1="150" x2="330" y1="350" y2="350" stroke-dasharray="none"/>
            <text x="193" y="344" clip-path="url(#clipPath36)" stroke-dasharray="none" stroke="none" xml:space="preserve">  compareApartClick()</text>
            <line clip-path="url(#clipPath37)" fill="none" x1="314" x2="330" y1="356" y2="350" stroke-dasharray="none"/>
            <line clip-path="url(#clipPath37)" fill="none" x1="330" x2="314" y1="350" y2="344" stroke-dasharray="none"/>
            <line clip-path="url(#clipPath34)" fill="none" x1="560" x2="350" y1="210" y2="210"/>
            <text xml:space="preserve" x="387" y="230" clip-path="url(#clipPath38)" stroke="none">display a sorted apartment list</text>
            <line clip-path="url(#clipPath39)" fill="none" x1="366" x2="350" y1="204" y2="210" stroke-dasharray="none"/>
            <line clip-path="url(#clipPath39)" fill="none" x1="350" x2="366" y1="210" y2="216" stroke-dasharray="none"/>
            <line clip-path="url(#clipPath34)" fill="none" x1="360" x2="550" y1="170" y2="170" stroke-dasharray="none"/>
            <text x="419" y="164" clip-path="url(#clipPath40)" stroke-dasharray="none" stroke="none" xml:space="preserve">  displayAppart()</text>
            <polygon stroke-dasharray="none" clip-path="url(#clipPath41)" points=" 550 170 534 176 534 164" stroke="none"/>
            <polygon fill="none" stroke-dasharray="none" clip-path="url(#clipPath41)" points=" 550 170 534 176 534 164"/>
            <line clip-path="url(#clipPath34)" fill="none" x1="130" x2="68" y1="270" y2="270" stroke-dasharray="none"/>
            <line clip-path="url(#clipPath34)" fill="none" x1="68" x2="68" y1="270" y2="310" stroke-dasharray="none"/>
            <line clip-path="url(#clipPath34)" fill="none" x1="68" x2="130" y1="310" y2="310" stroke-dasharray="none"/>
            <text x="170" y="282" clip-path="url(#clipPath42)" stroke-dasharray="none" stroke="none" xml:space="preserve">Choose 2 apartments to compare</text>
            <line clip-path="url(#clipPath43)" fill="none" x1="114" x2="130" y1="316" y2="310" stroke-dasharray="none"/>
            <line clip-path="url(#clipPath43)" fill="none" x1="130" x2="114" y1="310" y2="304" stroke-dasharray="none"/>
            <line clip-path="url(#clipPath34)" fill="none" x1="350" x2="760" y1="410" y2="410" stroke-dasharray="none"/>
            <text x="447" y="404" clip-path="url(#clipPath44)" stroke-dasharray="none" stroke="none" xml:space="preserve">  given(apart1: Apartment, apart2: Apartment, avf: ApartmentValueFunction): SpiderPlot</text>
            <polygon stroke-dasharray="none" clip-path="url(#clipPath45)" points=" 760 410 744 416 744 404" stroke="none"/>
            <polygon fill="none" stroke-dasharray="none" clip-path="url(#clipPath45)" points=" 760 410 744 416 744 404"/>
            <line clip-path="url(#clipPath34)" fill="none" x1="330" x2="264" y1="530" y2="530" stroke-dasharray="none"/>
            <line clip-path="url(#clipPath34)" fill="none" x1="264" x2="264" y1="530" y2="610" stroke-dasharray="none"/>
            <line clip-path="url(#clipPath34)" fill="none" x1="264" x2="330" y1="610" y2="610" stroke-dasharray="none"/>
            <text x="210" y="642" clip-path="url(#clipPath46)" stroke-dasharray="none" stroke="none" xml:space="preserve">  displaySpiderPlot()</text>
            <polygon stroke-dasharray="none" clip-path="url(#clipPath47)" points=" 330 610 314 616 314 604" stroke="none"/>
            <polygon fill="none" stroke-dasharray="none" clip-path="url(#clipPath47)" points=" 330 610 314 616 314 604"/>
            <line clip-path="url(#clipPath34)" fill="none" x1="360" x2="550" y1="170" y2="170" stroke-dasharray="none"/>
            <text x="419" y="164" clip-path="url(#clipPath40)" stroke-dasharray="none" stroke="none" xml:space="preserve">  displayAppart()</text>
            <polygon stroke-dasharray="none" clip-path="url(#clipPath41)" points=" 550 170 534 176 534 164" stroke="none"/>
            <polygon fill="none" stroke-dasharray="none" clip-path="url(#clipPath41)" points=" 550 170 534 176 534 164"/>
            <line clip-path="url(#clipPath34)" fill="none" x1="560" x2="350" y1="210" y2="210"/>
            <text xml:space="preserve" x="387" y="230" clip-path="url(#clipPath38)" stroke="none">display a sorted apartment list</text>
            <line clip-path="url(#clipPath39)" fill="none" x1="366" x2="350" y1="204" y2="210" stroke-dasharray="none"/>
            <line clip-path="url(#clipPath39)" fill="none" x1="350" x2="366" y1="210" y2="216" stroke-dasharray="none"/>
            <line clip-path="url(#clipPath34)" fill="none" x1="130" x2="68" y1="270" y2="270" stroke-dasharray="none"/>
            <line clip-path="url(#clipPath34)" fill="none" x1="68" x2="68" y1="270" y2="310" stroke-dasharray="none"/>
            <line clip-path="url(#clipPath34)" fill="none" x1="68" x2="130" y1="310" y2="310" stroke-dasharray="none"/>
            <text x="170" y="282" clip-path="url(#clipPath42)" stroke-dasharray="none" stroke="none" xml:space="preserve">Choose 2 apartments to compare</text>
            <line clip-path="url(#clipPath43)" fill="none" x1="114" x2="130" y1="316" y2="310" stroke-dasharray="none"/>
            <line clip-path="url(#clipPath43)" fill="none" x1="130" x2="114" y1="310" y2="304" stroke-dasharray="none"/>
            <line clip-path="url(#clipPath34)" fill="none" x1="150" x2="330" y1="350" y2="350" stroke-dasharray="none"/>
            <text x="193" y="344" clip-path="url(#clipPath36)" stroke-dasharray="none" stroke="none" xml:space="preserve">  compareApartClick()</text>
            <line clip-path="url(#clipPath37)" fill="none" x1="314" x2="330" y1="356" y2="350" stroke-dasharray="none"/>
            <line clip-path="url(#clipPath37)" fill="none" x1="330" x2="314" y1="350" y2="344" stroke-dasharray="none"/>
            <line clip-path="url(#clipPath34)" fill="none" x1="350" x2="760" y1="410" y2="410" stroke-dasharray="none"/>
            <text x="447" y="404" clip-path="url(#clipPath44)" stroke-dasharray="none" stroke="none" xml:space="preserve">  given(apart1: Apartment, apart2: Apartment, avf: ApartmentValueFunction): SpiderPlot</text>
            <polygon stroke-dasharray="none" clip-path="url(#clipPath45)" points=" 760 410 744 416 744 404" stroke="none"/>
            <polygon fill="none" stroke-dasharray="none" clip-path="url(#clipPath45)" points=" 760 410 744 416 744 404"/>
            <line clip-path="url(#clipPath34)" fill="none" x1="750" x2="360" y1="450" y2="450"/>
            <line clip-path="url(#clipPath35)" fill="none" x1="376" x2="360" y1="444" y2="450" stroke-dasharray="none"/>
            <line clip-path="url(#clipPath35)" fill="none" x1="360" x2="376" y1="450" y2="456" stroke-dasharray="none"/>
            <line clip-path="url(#clipPath34)" fill="none" x1="330" x2="264" y1="530" y2="530" stroke-dasharray="none"/>
            <line clip-path="url(#clipPath34)" fill="none" x1="264" x2="264" y1="530" y2="610" stroke-dasharray="none"/>
            <line clip-path="url(#clipPath34)" fill="none" x1="264" x2="330" y1="610" y2="610" stroke-dasharray="none"/>
            <text x="210" y="642" clip-path="url(#clipPath46)" stroke-dasharray="none" stroke="none" xml:space="preserve">  displaySpiderPlot()</text>
            <polygon stroke-dasharray="none" clip-path="url(#clipPath47)" points=" 330 610 314 616 314 604" stroke="none"/>
            <polygon fill="none" stroke-dasharray="none" clip-path="url(#clipPath47)" points=" 330 610 314 616 314 604"/>
        </g>
    </g>
</svg>
