<?xml version="1.0" encoding="UTF-8"?><svg xmlns="http://www.w3.org/2000/svg" xmlns:xlink="http://www.w3.org/1999/xlink" stroke-dasharray="none" shape-rendering="auto" font-family="'Dialog'" width="895" text-rendering="auto" fill-opacity="1" contentScriptType="text/ecmascript" color-interpolation="auto" color-rendering="auto" preserveAspectRatio="xMidYMid meet" font-size="12" viewBox="0 0 895 1020" fill="black" stroke="black" image-rendering="auto" stroke-miterlimit="10" zoomAndPan="magnify" version="1.0" stroke-linecap="square" stroke-linejoin="miter" contentStyleType="text/css" font-style="normal" height="1020" stroke-width="1" stroke-dashoffset="0" font-weight="normal" stroke-opacity="1">
    <!--Generated by the Batik Graphics2D SVG Generator-->
    <defs id="genericDefs"/>
    <g>
        <defs id="defs1">
            <linearGradient x1="10" x2="10" y1="10" gradientUnits="userSpaceOnUse" y2="815" xlink:type="simple" xlink:actuate="onLoad" id="linearGradient1" xlink:show="other" spreadMethod="pad">
                <stop stop-opacity="1" stop-color="white" offset="0%"/>
                <stop stop-opacity="1" stop-color="white" offset="100%"/>
            </linearGradient>
            <linearGradient x1="90" x2="90" y1="44" gradientUnits="userSpaceOnUse" y2="796" xlink:type="simple" xlink:actuate="onLoad" id="linearGradient2" xlink:show="other" spreadMethod="pad">
                <stop stop-opacity="1" stop-color="white" offset="0%"/>
                <stop stop-opacity="1" stop-color="rgb(195,209,213)" offset="100%"/>
            </linearGradient>
            <linearGradient x1="130" x2="130" y1="90" gradientUnits="userSpaceOnUse" y2="730" xlink:type="simple" xlink:actuate="onLoad" id="linearGradient3" xlink:show="other" spreadMethod="pad">
                <stop stop-opacity="1" stop-color="white" offset="0%"/>
                <stop stop-opacity="1" stop-color="rgb(195,209,213)" offset="100%"/>
            </linearGradient>
            <linearGradient x1="290" x2="290" y1="44" gradientUnits="userSpaceOnUse" y2="796" xlink:type="simple" xlink:actuate="onLoad" id="linearGradient4" xlink:show="other" spreadMethod="pad">
                <stop stop-opacity="1" stop-color="white" offset="0%"/>
                <stop stop-opacity="1" stop-color="rgb(195,209,213)" offset="100%"/>
            </linearGradient>
            <linearGradient x1="330" x2="330" y1="90" gradientUnits="userSpaceOnUse" y2="230" xlink:type="simple" xlink:actuate="onLoad" id="linearGradient5" xlink:show="other" spreadMethod="pad">
                <stop stop-opacity="1" stop-color="white" offset="0%"/>
                <stop stop-opacity="1" stop-color="rgb(195,209,213)" offset="100%"/>
            </linearGradient>
            <linearGradient x1="330" x2="330" y1="329" gradientUnits="userSpaceOnUse" y2="750" xlink:type="simple" xlink:actuate="onLoad" id="linearGradient6" xlink:show="other" spreadMethod="pad">
                <stop stop-opacity="1" stop-color="white" offset="0%"/>
                <stop stop-opacity="1" stop-color="rgb(195,209,213)" offset="100%"/>
            </linearGradient>
            <linearGradient x1="340" x2="340" y1="169" gradientUnits="userSpaceOnUse" y2="210" xlink:type="simple" xlink:actuate="onLoad" id="linearGradient7" xlink:show="other" spreadMethod="pad">
                <stop stop-opacity="1" stop-color="white" offset="0%"/>
                <stop stop-opacity="1" stop-color="rgb(195,209,213)" offset="100%"/>
            </linearGradient>
            <linearGradient x1="340" x2="340" y1="409" gradientUnits="userSpaceOnUse" y2="451" xlink:type="simple" xlink:actuate="onLoad" id="linearGradient8" xlink:show="other" spreadMethod="pad">
                <stop stop-opacity="1" stop-color="white" offset="0%"/>
                <stop stop-opacity="1" stop-color="rgb(195,209,213)" offset="100%"/>
            </linearGradient>
            <linearGradient x1="340" x2="340" y1="610" gradientUnits="userSpaceOnUse" y2="669" xlink:type="simple" xlink:actuate="onLoad" id="linearGradient9" xlink:show="other" spreadMethod="pad">
                <stop stop-opacity="1" stop-color="white" offset="0%"/>
                <stop stop-opacity="1" stop-color="rgb(195,209,213)" offset="100%"/>
            </linearGradient>
            <linearGradient x1="510" x2="510" y1="44" gradientUnits="userSpaceOnUse" y2="796" xlink:type="simple" xlink:actuate="onLoad" id="linearGradient10" xlink:show="other" spreadMethod="pad">
                <stop stop-opacity="1" stop-color="white" offset="0%"/>
                <stop stop-opacity="1" stop-color="rgb(195,209,213)" offset="100%"/>
            </linearGradient>
            <linearGradient x1="550" x2="550" y1="170" gradientUnits="userSpaceOnUse" y2="210" xlink:type="simple" xlink:actuate="onLoad" id="linearGradient11" xlink:show="other" spreadMethod="pad">
                <stop stop-opacity="1" stop-color="white" offset="0%"/>
                <stop stop-opacity="1" stop-color="rgb(195,209,213)" offset="100%"/>
            </linearGradient>
            <linearGradient x1="710" x2="710" y1="44" gradientUnits="userSpaceOnUse" y2="796" xlink:type="simple" xlink:actuate="onLoad" id="linearGradient12" xlink:show="other" spreadMethod="pad">
                <stop stop-opacity="1" stop-color="white" offset="0%"/>
                <stop stop-opacity="1" stop-color="rgb(195,209,213)" offset="100%"/>
            </linearGradient>
            <linearGradient x1="750" x2="750" y1="410" gradientUnits="userSpaceOnUse" y2="731" xlink:type="simple" xlink:actuate="onLoad" id="linearGradient13" xlink:show="other" spreadMethod="pad">
                <stop stop-opacity="1" stop-color="white" offset="0%"/>
                <stop stop-opacity="1" stop-color="rgb(195,209,213)" offset="100%"/>
            </linearGradient>
            <clipPath clipPathUnits="userSpaceOnUse" id="clipPath1">
                <path d="M10 10 L10 814 L866 814 L866 10 Z"/>
            </clipPath>
            <clipPath clipPathUnits="userSpaceOnUse" id="clipPath2">
                <path d="M7 7 L870 7 L870 818 L7 818 L7 7 Z"/>
            </clipPath>
            <clipPath clipPathUnits="userSpaceOnUse" id="clipPath3">
                <path d="M15 12 L67 12 L67 29 L15 29 L15 12 Z"/>
            </clipPath>
            <clipPath clipPathUnits="userSpaceOnUse" id="clipPath4">
                <path d="M89 43 L191 43 L191 797 L89 797 L89 43 Z"/>
            </clipPath>
            <clipPath clipPathUnits="userSpaceOnUse" id="clipPath5">
                <path d="M90 44 L90 795 L189 795 L189 44 Z"/>
            </clipPath>
            <clipPath clipPathUnits="userSpaceOnUse" id="clipPath6">
                <path d="M122 46 L160 46 L160 63 L122 63 L122 46 Z"/>
            </clipPath>
            <clipPath clipPathUnits="userSpaceOnUse" id="clipPath7">
                <path d="M130 90 L130 729 L149 729 L149 90 Z"/>
            </clipPath>
            <clipPath clipPathUnits="userSpaceOnUse" id="clipPath8">
                <path d="M129 89 L151 89 L151 731 L129 731 L129 89 Z"/>
            </clipPath>
            <clipPath clipPathUnits="userSpaceOnUse" id="clipPath9">
                <path d="M131 261 L149 261 L149 279 L131 279 L131 261 Z"/>
            </clipPath>
            <clipPath clipPathUnits="userSpaceOnUse" id="clipPath10">
                <path d="M131 81 L149 81 L149 99 L131 99 L131 81 Z"/>
            </clipPath>
            <clipPath clipPathUnits="userSpaceOnUse" id="clipPath11">
                <path d="M131 721 L149 721 L149 739 L131 739 L131 721 Z"/>
            </clipPath>
            <clipPath clipPathUnits="userSpaceOnUse" id="clipPath12">
                <path d="M289 43 L391 43 L391 797 L289 797 L289 43 Z"/>
            </clipPath>
            <clipPath clipPathUnits="userSpaceOnUse" id="clipPath13">
                <path d="M290 44 L290 795 L389 795 L389 44 Z"/>
            </clipPath>
            <clipPath clipPathUnits="userSpaceOnUse" id="clipPath14">
                <path d="M302 46 L380 46 L380 63 L302 63 L302 46 Z"/>
            </clipPath>
            <clipPath clipPathUnits="userSpaceOnUse" id="clipPath15">
                <path d="M330 90 L330 229 L349 229 L349 90 Z"/>
            </clipPath>
            <clipPath clipPathUnits="userSpaceOnUse" id="clipPath16">
                <path d="M329 89 L351 89 L351 231 L329 231 L329 89 Z"/>
            </clipPath>
            <clipPath clipPathUnits="userSpaceOnUse" id="clipPath17">
                <path d="M348 107 L401 107 L401 124 L348 124 L348 107 Z"/>
            </clipPath>
            <clipPath clipPathUnits="userSpaceOnUse" id="clipPath18">
                <path d="M330 329 L330 749 L349 749 L349 329 Z"/>
            </clipPath>
            <clipPath clipPathUnits="userSpaceOnUse" id="clipPath19">
                <path d="M329 328 L351 328 L351 751 L329 751 L329 328 Z"/>
            </clipPath>
            <clipPath clipPathUnits="userSpaceOnUse" id="clipPath20">
                <path d="M348 346 L433 346 L433 363 L348 363 L348 346 Z"/>
            </clipPath>
            <clipPath clipPathUnits="userSpaceOnUse" id="clipPath21">
                <path d="M340 169 L340 209 L359 209 L359 169 Z"/>
            </clipPath>
            <clipPath clipPathUnits="userSpaceOnUse" id="clipPath22">
                <path d="M339 168 L361 168 L361 211 L339 211 L339 168 Z"/>
            </clipPath>
            <clipPath clipPathUnits="userSpaceOnUse" id="clipPath23">
                <path d="M340 409 L340 450 L359 450 L359 409 Z"/>
            </clipPath>
            <clipPath clipPathUnits="userSpaceOnUse" id="clipPath24">
                <path d="M339 408 L361 408 L361 452 L339 452 L339 408 Z"/>
            </clipPath>
            <clipPath clipPathUnits="userSpaceOnUse" id="clipPath25">
                <path d="M358 426 L389 426 L389 443 L358 443 L358 426 Z"/>
            </clipPath>
            <clipPath clipPathUnits="userSpaceOnUse" id="clipPath26">
                <path d="M340 610 L340 668 L359 668 L359 610 Z"/>
            </clipPath>
            <clipPath clipPathUnits="userSpaceOnUse" id="clipPath27">
                <path d="M339 609 L361 609 L361 670 L339 670 L339 609 Z"/>
            </clipPath>
            <clipPath clipPathUnits="userSpaceOnUse" id="clipPath28">
                <path d="M358 627 L452 627 L452 644 L358 644 L358 627 Z"/>
            </clipPath>
            <clipPath clipPathUnits="userSpaceOnUse" id="clipPath29">
                <path d="M509 43 L611 43 L611 797 L509 797 L509 43 Z"/>
            </clipPath>
            <clipPath clipPathUnits="userSpaceOnUse" id="clipPath30">
                <path d="M510 44 L510 795 L609 795 L609 44 Z"/>
            </clipPath>
            <clipPath clipPathUnits="userSpaceOnUse" id="clipPath31">
                <path d="M513 46 L609 46 L609 63 L513 63 L513 46 Z"/>
            </clipPath>
            <clipPath clipPathUnits="userSpaceOnUse" id="clipPath32">
                <path d="M550 170 L550 209 L569 209 L569 170 Z"/>
            </clipPath>
            <clipPath clipPathUnits="userSpaceOnUse" id="clipPath33">
                <path d="M549 169 L571 169 L571 211 L549 211 L549 169 Z"/>
            </clipPath>
            <clipPath clipPathUnits="userSpaceOnUse" id="clipPath34">
                <path d="M709 43 L811 43 L811 797 L709 797 L709 43 Z"/>
            </clipPath>
            <clipPath clipPathUnits="userSpaceOnUse" id="clipPath35">
                <path d="M710 44 L710 795 L809 795 L809 44 Z"/>
            </clipPath>
            <clipPath clipPathUnits="userSpaceOnUse" id="clipPath36">
                <path d="M728 46 L794 46 L794 63 L728 63 L728 46 Z"/>
            </clipPath>
            <clipPath clipPathUnits="userSpaceOnUse" id="clipPath37">
                <path d="M750 410 L750 730 L769 730 L769 410 Z"/>
            </clipPath>
            <clipPath clipPathUnits="userSpaceOnUse" id="clipPath38">
                <path d="M749 409 L771 409 L771 732 L749 732 L749 409 Z"/>
            </clipPath>
            <clipPath clipPathUnits="userSpaceOnUse" id="clipPath39">
                <path d="M9 9 L868 9 L868 816 L9 816 L9 9 Z"/>
            </clipPath>
            <clipPath clipPathUnits="userSpaceOnUse" id="clipPath40">
                <path d="M-1 -1 L896 -1 L896 1021 L-1 1021 L-1 -1 Z"/>
            </clipPath>
            <clipPath clipPathUnits="userSpaceOnUse" id="clipPath41">
                <path d="M182 329 L300 329 L300 346 L182 346 L182 329 Z"/>
            </clipPath>
            <clipPath clipPathUnits="userSpaceOnUse" id="clipPath42">
                <path d="M313 343 L332 343 L332 358 L313 358 L313 343 Z"/>
            </clipPath>
            <clipPath clipPathUnits="userSpaceOnUse" id="clipPath43">
                <path d="M409 389 L873 389 L873 406 L409 406 L409 389 Z"/>
            </clipPath>
            <clipPath clipPathUnits="userSpaceOnUse" id="clipPath44">
                <path d="M733 403 L752 403 L752 418 L733 418 L733 403 Z"/>
            </clipPath>
            <clipPath clipPathUnits="userSpaceOnUse" id="clipPath45">
                <path d="M349 663 L368 663 L368 678 L349 678 L349 663 Z"/>
            </clipPath>
            <clipPath clipPathUnits="userSpaceOnUse" id="clipPath46">
                <path d="M69 289 L248 289 L248 306 L69 306 L69 289 Z"/>
            </clipPath>
            <clipPath clipPathUnits="userSpaceOnUse" id="clipPath47">
                <path d="M113 303 L132 303 L132 318 L113 318 L113 303 Z"/>
            </clipPath>
            <clipPath clipPathUnits="userSpaceOnUse" id="clipPath48">
                <path d="M503 589 L610 589 L610 606 L503 606 L503 589 Z"/>
            </clipPath>
            <clipPath clipPathUnits="userSpaceOnUse" id="clipPath49">
                <path d="M733 603 L752 603 L752 618 L733 618 L733 603 Z"/>
            </clipPath>
            <clipPath clipPathUnits="userSpaceOnUse" id="clipPath50">
                <path d="M359 443 L378 443 L378 458 L359 458 L359 443 Z"/>
            </clipPath>
            <clipPath clipPathUnits="userSpaceOnUse" id="clipPath51">
                <path d="M412 149 L501 149 L501 166 L412 166 L412 149 Z"/>
            </clipPath>
            <clipPath clipPathUnits="userSpaceOnUse" id="clipPath52">
                <path d="M533 163 L552 163 L552 178 L533 178 L533 163 Z"/>
            </clipPath>
            <clipPath clipPathUnits="userSpaceOnUse" id="clipPath53">
                <path d="M374 215 L535 215 L535 232 L374 232 L374 215 Z"/>
            </clipPath>
            <clipPath clipPathUnits="userSpaceOnUse" id="clipPath54">
                <path d="M359 203 L378 203 L378 218 L359 218 L359 203 Z"/>
            </clipPath>
        </defs>
        <g fill="url(#linearGradient1)" font-family="'Segoe UI'" stroke-linejoin="round" stroke="url(#linearGradient1)" stroke-width="0" stroke-miterlimit="0">
            <rect x="10" y="10" clip-path="url(#clipPath1)" width="857" height="805" stroke="none"/>
        </g>
        <g stroke-width="0.1" font-family="'Segoe UI'" stroke-linecap="butt">
            <line clip-path="url(#clipPath2)" fill="none" x1="80" x2="80" y1="10" y2="22"/>
            <line clip-path="url(#clipPath2)" fill="none" x1="80" x2="80" y1="22" y2="22"/>
            <line clip-path="url(#clipPath2)" fill="none" x1="80" x2="74" y1="22" y2="28"/>
            <line clip-path="url(#clipPath2)" fill="none" x1="74" x2="74" y1="28" y2="28"/>
            <line clip-path="url(#clipPath2)" fill="none" x1="74" x2="10" y1="28" y2="28"/>
            <text xml:space="preserve" x="16" y="26" clip-path="url(#clipPath3)" stroke="none">SeqDiag  </text>
            <rect x="90" y="44" clip-path="url(#clipPath4)" fill="none" width="99" height="18" stroke-width="1.1"/>
            <line clip-path="url(#clipPath4)" fill="none" x1="140" x2="140" y1="62" y2="795" stroke-dasharray="5,5" stroke-width="1.1"/>
        </g>
        <g stroke-linecap="butt" fill="url(#linearGradient2)" font-family="'Segoe UI'" stroke-dasharray="5,5" stroke="url(#linearGradient2)" stroke-width="1.1">
            <rect x="90" y="44" clip-path="url(#clipPath5)" width="100" opacity="0" height="752" stroke="none"/>
            <text x="123" y="60" clip-path="url(#clipPath6)" fill="black" stroke="none" xml:space="preserve">Tenant</text>
            <rect x="130" y="90" clip-path="url(#clipPath7)" fill="url(#linearGradient3)" width="20" height="640" stroke="none"/>
            <rect x="130" y="90" clip-path="url(#clipPath8)" fill="none" width="19" stroke-dasharray="none" rx="0" ry="0" height="639" stroke="black"/>
            <circle clip-path="url(#clipPath9)" fill="white" r="6.5" stroke-dasharray="none" cx="139.5" cy="269.5" stroke="none"/>
        </g>
        <g stroke-width="2.1" font-family="'Segoe UI'" stroke-linecap="butt">
            <circle fill="none" r="7" clip-path="url(#clipPath9)" cx="140" cy="270"/>
            <circle clip-path="url(#clipPath9)" fill="white" r="6.5" cx="139.5" cy="269.5" stroke="none"/>
            <circle fill="none" r="7" clip-path="url(#clipPath9)" cx="140" cy="270"/>
            <circle clip-path="url(#clipPath10)" fill="white" r="6.5" cx="139.5" cy="89.5" stroke="none"/>
            <circle fill="none" r="7" clip-path="url(#clipPath10)" cx="140" cy="90"/>
            <circle clip-path="url(#clipPath11)" fill="white" r="6.5" cx="139.5" cy="729.5" stroke="none"/>
            <circle fill="none" r="7" clip-path="url(#clipPath11)" cx="140" cy="730"/>
            <circle clip-path="url(#clipPath9)" fill="white" r="6.5" cx="139.5" cy="269.5" stroke="none"/>
            <circle fill="none" r="7" clip-path="url(#clipPath9)" cx="140" cy="270"/>
            <circle clip-path="url(#clipPath9)" fill="white" r="6.5" cx="139.5" cy="269.5" stroke="none"/>
            <circle fill="none" r="7" clip-path="url(#clipPath9)" cx="140" cy="270"/>
            <circle clip-path="url(#clipPath10)" fill="white" r="6.5" cx="139.5" cy="89.5" stroke="none"/>
            <circle fill="none" r="7" clip-path="url(#clipPath10)" cx="140" cy="90"/>
            <circle clip-path="url(#clipPath11)" fill="white" r="6.5" cx="139.5" cy="729.5" stroke="none"/>
            <circle fill="none" r="7" clip-path="url(#clipPath11)" cx="140" cy="730"/>
            <circle clip-path="url(#clipPath9)" fill="white" r="6.5" cx="139.5" cy="269.5" stroke="none"/>
            <circle fill="none" r="7" clip-path="url(#clipPath9)" cx="140" cy="270"/>
            <circle clip-path="url(#clipPath9)" fill="white" r="6.5" cx="139.5" cy="269.5" stroke="none"/>
            <circle fill="none" r="7" clip-path="url(#clipPath9)" cx="140" cy="270"/>
            <circle clip-path="url(#clipPath10)" fill="white" r="6.5" cx="139.5" cy="89.5" stroke="none"/>
            <circle fill="none" r="7" clip-path="url(#clipPath10)" cx="140" cy="90"/>
            <circle clip-path="url(#clipPath11)" fill="white" r="6.5" cx="139.5" cy="729.5" stroke="none"/>
            <circle fill="none" r="7" clip-path="url(#clipPath11)" cx="140" cy="730"/>
            <circle clip-path="url(#clipPath9)" fill="white" r="6.5" cx="139.5" cy="269.5" stroke="none"/>
            <circle fill="none" r="7" clip-path="url(#clipPath9)" cx="140" cy="270"/>
            <circle clip-path="url(#clipPath9)" fill="white" r="6.5" cx="139.5" cy="269.5" stroke="none"/>
            <circle fill="none" r="7" clip-path="url(#clipPath9)" cx="140" cy="270"/>
            <circle clip-path="url(#clipPath10)" fill="white" r="6.5" cx="139.5" cy="89.5" stroke="none"/>
            <circle fill="none" r="7" clip-path="url(#clipPath10)" cx="140" cy="90"/>
            <circle clip-path="url(#clipPath11)" fill="white" r="6.5" cx="139.5" cy="729.5" stroke="none"/>
            <circle fill="none" r="7" clip-path="url(#clipPath11)" cx="140" cy="730"/>
            <circle clip-path="url(#clipPath9)" fill="white" r="6.5" cx="139.5" cy="269.5" stroke="none"/>
            <circle fill="none" r="7" clip-path="url(#clipPath9)" cx="140" cy="270"/>
            <circle clip-path="url(#clipPath9)" fill="white" r="6.5" cx="139.5" cy="269.5" stroke="none"/>
            <circle fill="none" r="7" clip-path="url(#clipPath9)" cx="140" cy="270"/>
            <circle clip-path="url(#clipPath10)" fill="white" r="6.5" cx="139.5" cy="89.5" stroke="none"/>
            <circle fill="none" r="7" clip-path="url(#clipPath10)" cx="140" cy="90"/>
            <circle clip-path="url(#clipPath11)" fill="white" r="6.5" cx="139.5" cy="729.5" stroke="none"/>
            <circle fill="none" r="7" clip-path="url(#clipPath11)" cx="140" cy="730"/>
            <circle clip-path="url(#clipPath9)" fill="white" r="6.5" cx="139.5" cy="269.5" stroke="none"/>
            <circle fill="none" r="7" clip-path="url(#clipPath9)" cx="140" cy="270"/>
            <circle clip-path="url(#clipPath9)" fill="white" r="6.5" cx="139.5" cy="269.5" stroke="none"/>
            <circle fill="none" r="7" clip-path="url(#clipPath9)" cx="140" cy="270"/>
            <circle clip-path="url(#clipPath10)" fill="white" r="6.5" cx="139.5" cy="89.5" stroke="none"/>
            <circle fill="none" r="7" clip-path="url(#clipPath10)" cx="140" cy="90"/>
            <circle clip-path="url(#clipPath11)" fill="white" r="6.5" cx="139.5" cy="729.5" stroke="none"/>
            <circle fill="none" r="7" clip-path="url(#clipPath11)" cx="140" cy="730"/>
            <circle clip-path="url(#clipPath9)" fill="white" r="6.5" cx="139.5" cy="269.5" stroke="none"/>
            <circle fill="none" r="7" clip-path="url(#clipPath9)" cx="140" cy="270"/>
            <circle clip-path="url(#clipPath9)" fill="white" r="6.5" cx="139.5" cy="269.5" stroke="none"/>
            <circle fill="none" r="7" clip-path="url(#clipPath9)" cx="140" cy="270"/>
            <circle clip-path="url(#clipPath10)" fill="white" r="6.5" cx="139.5" cy="89.5" stroke="none"/>
            <circle fill="none" r="7" clip-path="url(#clipPath10)" cx="140" cy="90"/>
            <circle clip-path="url(#clipPath11)" fill="white" r="6.5" cx="139.5" cy="729.5" stroke="none"/>
            <circle fill="none" r="7" clip-path="url(#clipPath11)" cx="140" cy="730"/>
            <circle clip-path="url(#clipPath9)" fill="white" r="6.5" cx="139.5" cy="269.5" stroke="none"/>
            <circle fill="none" r="7" clip-path="url(#clipPath9)" cx="140" cy="270"/>
            <circle clip-path="url(#clipPath9)" fill="white" r="6.5" cx="139.5" cy="269.5" stroke="none"/>
            <circle fill="none" r="7" clip-path="url(#clipPath9)" cx="140" cy="270"/>
            <circle clip-path="url(#clipPath10)" fill="white" r="6.5" cx="139.5" cy="89.5" stroke="none"/>
            <circle fill="none" r="7" clip-path="url(#clipPath10)" cx="140" cy="90"/>
            <circle clip-path="url(#clipPath11)" fill="white" r="6.5" cx="139.5" cy="729.5" stroke="none"/>
            <circle fill="none" r="7" clip-path="url(#clipPath11)" cx="140" cy="730"/>
            <circle clip-path="url(#clipPath9)" fill="white" r="6.5" cx="139.5" cy="269.5" stroke="none"/>
            <circle fill="none" r="7" clip-path="url(#clipPath9)" cx="140" cy="270"/>
            <circle clip-path="url(#clipPath9)" fill="white" r="6.5" cx="139.5" cy="269.5" stroke="none"/>
            <circle fill="none" r="7" clip-path="url(#clipPath9)" cx="140" cy="270"/>
            <circle clip-path="url(#clipPath10)" fill="white" r="6.5" cx="139.5" cy="89.5" stroke="none"/>
            <circle fill="none" r="7" clip-path="url(#clipPath10)" cx="140" cy="90"/>
            <circle clip-path="url(#clipPath11)" fill="white" r="6.5" cx="139.5" cy="729.5" stroke="none"/>
            <circle fill="none" r="7" clip-path="url(#clipPath11)" cx="140" cy="730"/>
            <circle clip-path="url(#clipPath9)" fill="white" r="6.5" cx="139.5" cy="269.5" stroke="none"/>
            <circle fill="none" r="7" clip-path="url(#clipPath9)" cx="140" cy="270"/>
            <circle clip-path="url(#clipPath9)" fill="white" r="6.5" cx="139.5" cy="269.5" stroke="none"/>
            <circle fill="none" r="7" clip-path="url(#clipPath9)" cx="140" cy="270"/>
            <circle clip-path="url(#clipPath10)" fill="white" r="6.5" cx="139.5" cy="89.5" stroke="none"/>
            <circle fill="none" r="7" clip-path="url(#clipPath10)" cx="140" cy="90"/>
            <circle clip-path="url(#clipPath11)" fill="white" r="6.5" cx="139.5" cy="729.5" stroke="none"/>
            <circle fill="none" r="7" clip-path="url(#clipPath11)" cx="140" cy="730"/>
            <circle clip-path="url(#clipPath9)" fill="white" r="6.5" cx="139.5" cy="269.5" stroke="none"/>
            <circle fill="none" r="7" clip-path="url(#clipPath9)" cx="140" cy="270"/>
            <circle clip-path="url(#clipPath9)" fill="white" r="6.5" cx="139.5" cy="269.5" stroke="none"/>
            <circle fill="none" r="7" clip-path="url(#clipPath9)" cx="140" cy="270"/>
            <circle clip-path="url(#clipPath10)" fill="white" r="6.5" cx="139.5" cy="89.5" stroke="none"/>
            <circle fill="none" r="7" clip-path="url(#clipPath10)" cx="140" cy="90"/>
            <circle clip-path="url(#clipPath11)" fill="white" r="6.5" cx="139.5" cy="729.5" stroke="none"/>
            <circle fill="none" r="7" clip-path="url(#clipPath11)" cx="140" cy="730"/>
            <circle clip-path="url(#clipPath9)" fill="white" r="6.5" cx="139.5" cy="269.5" stroke="none"/>
            <circle fill="none" r="7" clip-path="url(#clipPath9)" cx="140" cy="270"/>
            <circle clip-path="url(#clipPath9)" fill="white" r="6.5" cx="139.5" cy="269.5" stroke="none"/>
            <circle fill="none" r="7" clip-path="url(#clipPath9)" cx="140" cy="270"/>
            <circle clip-path="url(#clipPath10)" fill="white" r="6.5" cx="139.5" cy="89.5" stroke="none"/>
            <circle fill="none" r="7" clip-path="url(#clipPath10)" cx="140" cy="90"/>
            <circle clip-path="url(#clipPath11)" fill="white" r="6.5" cx="139.5" cy="729.5" stroke="none"/>
            <circle fill="none" r="7" clip-path="url(#clipPath11)" cx="140" cy="730"/>
            <circle clip-path="url(#clipPath9)" fill="white" r="6.5" cx="139.5" cy="269.5" stroke="none"/>
            <circle fill="none" r="7" clip-path="url(#clipPath9)" cx="140" cy="270"/>
            <circle clip-path="url(#clipPath9)" fill="white" r="6.5" cx="139.5" cy="269.5" stroke="none"/>
            <circle fill="none" r="7" clip-path="url(#clipPath9)" cx="140" cy="270"/>
            <circle clip-path="url(#clipPath10)" fill="white" r="6.5" cx="139.5" cy="89.5" stroke="none"/>
            <circle fill="none" r="7" clip-path="url(#clipPath10)" cx="140" cy="90"/>
            <circle clip-path="url(#clipPath11)" fill="white" r="6.5" cx="139.5" cy="729.5" stroke="none"/>
            <circle fill="none" r="7" clip-path="url(#clipPath11)" cx="140" cy="730"/>
            <circle clip-path="url(#clipPath9)" fill="white" r="6.5" cx="139.5" cy="269.5" stroke="none"/>
            <circle fill="none" r="7" clip-path="url(#clipPath9)" cx="140" cy="270"/>
            <circle clip-path="url(#clipPath9)" fill="white" r="6.5" cx="139.5" cy="269.5" stroke="none"/>
            <circle fill="none" r="7" clip-path="url(#clipPath9)" cx="140" cy="270"/>
            <circle clip-path="url(#clipPath10)" fill="white" r="6.5" cx="139.5" cy="89.5" stroke="none"/>
            <circle fill="none" r="7" clip-path="url(#clipPath10)" cx="140" cy="90"/>
            <circle clip-path="url(#clipPath11)" fill="white" r="6.5" cx="139.5" cy="729.5" stroke="none"/>
            <circle fill="none" r="7" clip-path="url(#clipPath11)" cx="140" cy="730"/>
            <circle clip-path="url(#clipPath9)" fill="white" r="6.5" cx="139.5" cy="269.5" stroke="none"/>
            <circle fill="none" r="7" clip-path="url(#clipPath9)" cx="140" cy="270"/>
            <circle clip-path="url(#clipPath9)" fill="white" r="6.5" cx="139.5" cy="269.5" stroke="none"/>
            <circle fill="none" r="7" clip-path="url(#clipPath9)" cx="140" cy="270"/>
            <circle clip-path="url(#clipPath10)" fill="white" r="6.5" cx="139.5" cy="89.5" stroke="none"/>
            <circle fill="none" r="7" clip-path="url(#clipPath10)" cx="140" cy="90"/>
            <circle clip-path="url(#clipPath11)" fill="white" r="6.5" cx="139.5" cy="729.5" stroke="none"/>
            <circle fill="none" r="7" clip-path="url(#clipPath11)" cx="140" cy="730"/>
            <rect x="290" y="44" clip-path="url(#clipPath12)" fill="none" width="99" height="18" stroke-width="1.1"/>
            <line clip-path="url(#clipPath12)" fill="none" x1="340" x2="340" y1="62" y2="795" stroke-dasharray="5,5" stroke-width="1.1"/>
        </g>
        <g stroke-linecap="butt" fill="url(#linearGradient4)" font-family="'Segoe UI'" stroke-dasharray="5,5" stroke="url(#linearGradient4)" stroke-width="1.1">
            <rect x="290" y="44" clip-path="url(#clipPath13)" width="100" opacity="0" height="752" stroke="none"/>
            <text x="303" y="60" clip-path="url(#clipPath14)" fill="black" stroke="none" xml:space="preserve"> : Orchestrator</text>
            <rect x="330" y="90" clip-path="url(#clipPath15)" fill="url(#linearGradient5)" width="20" height="140" stroke="none"/>
            <rect x="330" y="90" clip-path="url(#clipPath16)" fill="none" width="19" stroke-dasharray="none" rx="0" ry="0" height="139" stroke="black"/>
            <text x="349" y="121" clip-path="url(#clipPath17)" fill="black" stroke-dasharray="none" stroke="none" xml:space="preserve">showLAG</text>
            <rect x="330" y="329" clip-path="url(#clipPath18)" fill="url(#linearGradient6)" width="20" stroke-dasharray="none" height="421" stroke="none"/>
            <rect x="330" y="329" clip-path="url(#clipPath19)" fill="none" width="19" stroke-dasharray="none" rx="0" ry="0" height="420" stroke="black"/>
            <text x="349" y="360" clip-path="url(#clipPath20)" fill="black" stroke-dasharray="none" stroke="none" xml:space="preserve">showSpiderPlot</text>
            <rect x="340" y="169" clip-path="url(#clipPath21)" fill="url(#linearGradient7)" width="20" stroke-dasharray="none" height="41" stroke="none"/>
            <rect x="340" y="169" clip-path="url(#clipPath22)" fill="none" width="19" stroke-dasharray="none" rx="0" ry="0" height="40" stroke="black"/>
            <rect x="340" y="409" clip-path="url(#clipPath23)" fill="url(#linearGradient8)" width="20" stroke-dasharray="none" height="42" stroke="none"/>
            <rect x="340" y="409" clip-path="url(#clipPath24)" fill="none" width="19" stroke-dasharray="none" rx="0" ry="0" height="41" stroke="black"/>
            <text x="359" y="440" clip-path="url(#clipPath25)" fill="black" stroke-dasharray="none" stroke="none" xml:space="preserve">given</text>
            <rect x="340" y="610" clip-path="url(#clipPath26)" fill="url(#linearGradient9)" width="20" stroke-dasharray="none" height="59" stroke="none"/>
            <rect x="340" y="610" clip-path="url(#clipPath27)" fill="none" width="19" stroke-dasharray="none" rx="0" ry="0" height="58" stroke="black"/>
            <text x="359" y="641" clip-path="url(#clipPath28)" fill="black" stroke-dasharray="none" stroke="none" xml:space="preserve">displaySpiderPlot</text>
            <rect x="510" y="44" clip-path="url(#clipPath29)" fill="none" width="99" stroke-dasharray="none" height="18" stroke="black"/>
            <line clip-path="url(#clipPath29)" fill="none" x1="560" x2="560" y1="62" y2="795" stroke="black"/>
            <rect x="510" y="44" clip-path="url(#clipPath30)" fill="url(#linearGradient10)" width="100" opacity="0" height="752" stroke="none"/>
            <text x="514" y="60" clip-path="url(#clipPath31)" fill="black" stroke="none" xml:space="preserve"> : LayoutApartm...</text>
            <rect x="550" y="170" clip-path="url(#clipPath32)" fill="url(#linearGradient11)" width="20" height="40" stroke="none"/>
            <rect x="550" y="170" clip-path="url(#clipPath33)" fill="none" width="19" stroke-dasharray="none" rx="0" ry="0" height="39" stroke="black"/>
            <rect x="710" y="44" clip-path="url(#clipPath34)" fill="none" width="99" stroke-dasharray="none" height="18" stroke="black"/>
            <line clip-path="url(#clipPath34)" fill="none" x1="760" x2="760" y1="62" y2="795" stroke="black"/>
            <rect x="710" y="44" clip-path="url(#clipPath35)" fill="url(#linearGradient12)" width="100" opacity="0" height="752" stroke="none"/>
            <text x="729" y="60" clip-path="url(#clipPath36)" fill="black" stroke="none" xml:space="preserve"> : SpiderPlot</text>
            <rect x="750" y="410" clip-path="url(#clipPath37)" fill="url(#linearGradient13)" width="20" height="321" stroke="none"/>
            <rect x="750" y="410" clip-path="url(#clipPath38)" fill="none" width="19" stroke-dasharray="none" rx="0" ry="0" height="320" stroke="black"/>
            <rect x="10" y="10" clip-path="url(#clipPath39)" fill="none" width="856" stroke-dasharray="none" rx="0" ry="0" height="804" stroke="black"/>
        </g>
        <g text-rendering="optimizeLegibility" stroke-width="1.1" font-family="'Segoe UI'" stroke-linecap="butt">
            <line clip-path="url(#clipPath40)" fill="none" x1="150" x2="330" y1="350" y2="350"/>
            <text xml:space="preserve" x="183" y="343" clip-path="url(#clipPath41)" stroke="none">  compareApartClick()</text>
            <line clip-path="url(#clipPath42)" fill="none" x1="314" x2="330" y1="356" y2="350"/>
            <line clip-path="url(#clipPath42)" fill="none" x1="330" x2="314" y1="350" y2="344"/>
            <line clip-path="url(#clipPath40)" fill="none" x1="360" x2="750" y1="410" y2="410"/>
            <text xml:space="preserve" x="410" y="403" clip-path="url(#clipPath43)" stroke="none">  given(apart1: Apartment, apart2: Apartment, avf: ApartmentValueFunction): SpiderPlot</text>
            <polygon clip-path="url(#clipPath44)" points=" 750 410 734 416 734 404" stroke="none"/>
            <polygon fill="none" clip-path="url(#clipPath44)" points=" 750 410 734 416 734 404"/>
            <line clip-path="url(#clipPath40)" fill="none" x1="750" x2="350" y1="670" y2="670" stroke-dasharray="6.6,3.3"/>
            <line clip-path="url(#clipPath45)" fill="none" x1="366" x2="350" y1="664" y2="670"/>
            <line clip-path="url(#clipPath45)" fill="none" x1="350" x2="366" y1="670" y2="676"/>
            <line clip-path="url(#clipPath40)" fill="none" x1="130" x2="68" y1="270" y2="270"/>
            <line clip-path="url(#clipPath40)" fill="none" x1="68" x2="68" y1="270" y2="310"/>
            <line clip-path="url(#clipPath40)" fill="none" x1="68" x2="130" y1="310" y2="310"/>
            <text xml:space="preserve" x="70" y="303" clip-path="url(#clipPath46)" stroke="none">Choose 2 apartments to compare</text>
            <line clip-path="url(#clipPath47)" fill="none" x1="114" x2="130" y1="316" y2="310"/>
            <line clip-path="url(#clipPath47)" fill="none" x1="130" x2="114" y1="310" y2="304"/>
            <line clip-path="url(#clipPath40)" fill="none" x1="360" x2="750" y1="610" y2="610"/>
            <text xml:space="preserve" x="504" y="603" clip-path="url(#clipPath48)" stroke="none">  displaySpiderPlot()</text>
            <polygon clip-path="url(#clipPath49)" points=" 750 610 734 616 734 604" stroke="none"/>
            <polygon fill="none" clip-path="url(#clipPath49)" points=" 750 610 734 616 734 604"/>
            <line clip-path="url(#clipPath40)" fill="none" x1="750" x2="360" y1="450" y2="450" stroke-dasharray="6.6,3.3"/>
            <line clip-path="url(#clipPath50)" fill="none" x1="376" x2="360" y1="444" y2="450"/>
            <line clip-path="url(#clipPath50)" fill="none" x1="360" x2="376" y1="450" y2="456"/>
            <line clip-path="url(#clipPath40)" fill="none" x1="360" x2="550" y1="170" y2="170"/>
            <text xml:space="preserve" x="413" y="163" clip-path="url(#clipPath51)" stroke="none">  displayAppart()</text>
            <polygon clip-path="url(#clipPath52)" points=" 550 170 534 176 534 164" stroke="none"/>
            <polygon fill="none" clip-path="url(#clipPath52)" points=" 550 170 534 176 534 164"/>
            <line clip-path="url(#clipPath40)" fill="none" x1="550" x2="360" y1="210" y2="210" stroke-dasharray="6.6,3.3"/>
            <text x="375" y="229" clip-path="url(#clipPath53)" stroke-dasharray="6.6,3.3" stroke="none" xml:space="preserve">display a sorted apartment list</text>
            <line clip-path="url(#clipPath54)" fill="none" x1="376" x2="360" y1="204" y2="210"/>
            <line clip-path="url(#clipPath54)" fill="none" x1="360" x2="376" y1="210" y2="216"/>
            <line clip-path="url(#clipPath40)" fill="none" x1="360" x2="550" y1="170" y2="170"/>
            <text xml:space="preserve" x="413" y="163" clip-path="url(#clipPath51)" stroke="none">  displayAppart()</text>
            <polygon clip-path="url(#clipPath52)" points=" 550 170 534 176 534 164" stroke="none"/>
            <polygon fill="none" clip-path="url(#clipPath52)" points=" 550 170 534 176 534 164"/>
            <line clip-path="url(#clipPath40)" fill="none" x1="550" x2="360" y1="210" y2="210" stroke-dasharray="6.6,3.3"/>
            <text x="375" y="229" clip-path="url(#clipPath53)" stroke-dasharray="6.6,3.3" stroke="none" xml:space="preserve">display a sorted apartment list</text>
            <line clip-path="url(#clipPath54)" fill="none" x1="376" x2="360" y1="204" y2="210"/>
            <line clip-path="url(#clipPath54)" fill="none" x1="360" x2="376" y1="210" y2="216"/>
            <line clip-path="url(#clipPath40)" fill="none" x1="130" x2="68" y1="270" y2="270"/>
            <line clip-path="url(#clipPath40)" fill="none" x1="68" x2="68" y1="270" y2="310"/>
            <line clip-path="url(#clipPath40)" fill="none" x1="68" x2="130" y1="310" y2="310"/>
            <text xml:space="preserve" x="70" y="303" clip-path="url(#clipPath46)" stroke="none">Choose 2 apartments to compare</text>
            <line clip-path="url(#clipPath47)" fill="none" x1="114" x2="130" y1="316" y2="310"/>
            <line clip-path="url(#clipPath47)" fill="none" x1="130" x2="114" y1="310" y2="304"/>
            <line clip-path="url(#clipPath40)" fill="none" x1="150" x2="330" y1="350" y2="350"/>
            <text xml:space="preserve" x="183" y="343" clip-path="url(#clipPath41)" stroke="none">  compareApartClick()</text>
            <line clip-path="url(#clipPath42)" fill="none" x1="314" x2="330" y1="356" y2="350"/>
            <line clip-path="url(#clipPath42)" fill="none" x1="330" x2="314" y1="350" y2="344"/>
            <line clip-path="url(#clipPath40)" fill="none" x1="360" x2="750" y1="410" y2="410"/>
            <text xml:space="preserve" x="410" y="403" clip-path="url(#clipPath43)" stroke="none">  given(apart1: Apartment, apart2: Apartment, avf: ApartmentValueFunction): SpiderPlot</text>
            <polygon clip-path="url(#clipPath44)" points=" 750 410 734 416 734 404" stroke="none"/>
            <polygon fill="none" clip-path="url(#clipPath44)" points=" 750 410 734 416 734 404"/>
            <line clip-path="url(#clipPath40)" fill="none" x1="750" x2="360" y1="450" y2="450" stroke-dasharray="6.6,3.3"/>
            <line clip-path="url(#clipPath50)" fill="none" x1="376" x2="360" y1="444" y2="450"/>
            <line clip-path="url(#clipPath50)" fill="none" x1="360" x2="376" y1="450" y2="456"/>
            <line clip-path="url(#clipPath40)" fill="none" x1="360" x2="750" y1="610" y2="610"/>
            <text xml:space="preserve" x="504" y="603" clip-path="url(#clipPath48)" stroke="none">  displaySpiderPlot()</text>
            <polygon clip-path="url(#clipPath49)" points=" 750 610 734 616 734 604" stroke="none"/>
            <polygon fill="none" clip-path="url(#clipPath49)" points=" 750 610 734 616 734 604"/>
            <line clip-path="url(#clipPath40)" fill="none" x1="750" x2="350" y1="670" y2="670" stroke-dasharray="6.6,3.3"/>
            <line clip-path="url(#clipPath45)" fill="none" x1="366" x2="350" y1="664" y2="670"/>
            <line clip-path="url(#clipPath45)" fill="none" x1="350" x2="366" y1="670" y2="676"/>
        </g>
    </g>
</svg>
