<?xml version="1.0" standalone="no"?>
<!DOCTYPE svg PUBLIC "-//W3C//DTD SVG 20010904//EN"
 "http://www.w3.org/TR/2001/REC-SVG-20010904/DTD/svg10.dtd">
<svg version="1.0" xmlns="http://www.w3.org/2000/svg"
 width="1024.000000pt" height="749.000000pt" viewBox="0 0 1024.000000 749.000000"
 preserveAspectRatio="xMidYMid meet">

<g transform="translate(0.000000,749.000000) scale(0.100000,-0.100000)"
fill="#000000" stroke="none">
<path d="M4450 7410 c-11 -11 -20 -31 -20 -45 0 -30 32 -65 59 -65 27 0 55 30
42 43 -7 7 -15 6 -25 -3 -22 -18 -46 -5 -46 25 0 30 24 43 46 25 23 -20 40 2
19 24 -22 22 -51 20 -75 -4z"/>
<path d="M5282 7413 c-5 -10 -7 -38 -3 -63 5 -37 10 -46 29 -48 12 -2 22 1 22
7 0 6 -4 11 -10 11 -15 0 -12 57 3 64 10 5 10 7 0 12 -7 3 -13 12 -13 20 0 20
-17 18 -28 -3z"/>
<path d="M5340 7365 c0 -50 3 -65 14 -65 10 0 16 13 18 37 4 52 28 56 28 4 0
-30 4 -41 16 -41 12 0 14 10 12 48 -3 44 -5 47 -30 47 -20 -1 -28 4 -28 17 0
10 -7 18 -15 18 -12 0 -15 -14 -15 -65z"/>
<path d="M5780 7401 c0 -16 3 -36 6 -45 10 -27 24 -7 24 35 0 28 -4 39 -15 39
-10 0 -15 -10 -15 -29z"/>
<path d="M4572 7388 c-7 -7 -12 -24 -12 -38 0 -31 17 -50 45 -50 28 0 45 19
45 50 0 31 -17 50 -45 50 -12 0 -26 -5 -33 -12z m48 -38 c0 -10 -5 -22 -10
-25 -13 -8 -24 20 -16 41 8 20 26 9 26 -16z"/>
<path d="M4670 7349 c0 -36 4 -49 14 -49 10 0 16 13 18 37 4 52 28 56 28 4 0
-54 27 -58 32 -4 4 52 28 56 28 4 0 -30 4 -41 16 -41 12 0 14 10 12 48 l-3 47
-72 1 -73 2 0 -49z"/>
<path d="M4840 7329 c0 -55 3 -69 15 -69 9 0 15 9 15 25 0 18 4 23 15 19 22
-9 45 14 45 46 0 34 -16 47 -57 48 l-33 1 0 -70z m60 21 c0 -10 -5 -22 -10
-25 -13 -8 -24 20 -16 41 8 20 26 9 26 -16z"/>
<path d="M4960 7385 c-12 -15 -10 -15 16 -9 l29 7 -29 -25 c-39 -33 -30 -57
21 -56 l39 0 -6 47 c-4 40 -8 46 -31 49 -15 2 -31 -4 -39 -13z m32 -57 c-7 -7
-12 -8 -12 -2 0 14 12 26 19 19 2 -3 -1 -11 -7 -17z"/>
<path d="M5050 7349 c0 -37 4 -49 15 -49 11 0 15 11 15 35 0 22 6 38 15 41 25
10 17 21 -15 22 -29 1 -30 0 -30 -49z"/>
<path d="M5132 7388 c-27 -27 -5 -88 32 -88 13 0 30 7 37 17 13 15 11 16 -13
10 -15 -4 -30 -3 -33 3 -4 6 6 10 24 10 23 0 31 5 31 18 0 24 -19 42 -45 42
-12 0 -26 -5 -33 -12z m43 -18 c3 -5 -1 -10 -10 -10 -9 0 -13 5 -10 10 3 6 8
10 10 10 2 0 7 -4 10 -10z"/>
<path d="M5462 7388 c-27 -27 -5 -88 32 -88 13 0 30 7 37 17 13 15 11 16 -13
10 -15 -4 -30 -3 -33 3 -4 6 6 10 24 10 23 0 31 5 31 18 0 24 -19 42 -45 42
-12 0 -26 -5 -33 -12z m43 -18 c3 -5 -1 -10 -10 -10 -9 0 -13 5 -10 10 3 6 8
10 10 10 2 0 7 -4 10 -10z"/>
<path d="M5560 7349 c0 -36 4 -49 14 -49 10 0 16 13 18 37 4 52 28 56 28 4 0
-54 27 -58 32 -4 4 52 28 56 28 4 0 -30 4 -41 16 -41 12 0 14 10 12 48 l-3 47
-72 1 -73 2 0 -49z"/>
<path d="M5780 7315 c0 -8 7 -15 15 -15 8 0 15 7 15 15 0 8 -7 15 -15 15 -8 0
-15 -7 -15 -15z"/>
<path d="M4891 6623 c0 -21 3 -31 6 -23 3 8 11 18 17 22 8 5 7 8 -1 8 -19 0
-16 18 5 23 13 4 11 5 -5 6 -20 1 -23 -4 -22 -36z"/>
<path d="M4953 6625 c0 -22 2 -30 4 -17 2 12 2 30 0 40 -3 9 -5 -1 -4 -23z"/>
<path d="M4983 6624 c-8 -21 13 -42 28 -27 13 13 5 43 -11 43 -6 0 -13 -7 -17
-16z m27 -9 c0 -8 -4 -15 -10 -15 -5 0 -10 7 -10 15 0 8 5 15 10 15 6 0 10 -7
10 -15z"/>
<path d="M5043 6624 c-8 -21 13 -42 28 -27 13 13 5 43 -11 43 -6 0 -13 -7 -17
-16z m27 -9 c0 -8 -4 -15 -10 -15 -5 0 -10 7 -10 15 0 8 5 15 10 15 6 0 10 -7
10 -15z"/>
<path d="M5100 6615 c0 -14 2 -25 4 -25 2 0 6 11 8 25 3 14 1 25 -3 25 -5 0
-9 -11 -9 -25z"/>
<path d="M5178 6632 c11 -7 11 -10 -2 -15 -23 -9 -20 -27 5 -27 15 0 20 5 17
22 -2 12 -10 23 -18 25 -12 4 -12 3 -2 -5z"/>
<path d="M5220 6615 c0 -14 2 -25 4 -25 2 0 6 11 8 25 3 14 1 25 -3 25 -5 0
-9 -11 -9 -25z"/>
<path d="M5254 6626 c-8 -20 3 -36 24 -35 14 0 13 2 -3 9 -18 8 -18 9 -2 9 10
1 17 6 15 13 -7 19 -27 21 -34 4z"/>
<path d="M5328 6632 c11 -7 11 -10 -2 -15 -23 -9 -20 -27 5 -27 15 0 20 5 17
22 -2 12 -10 23 -18 25 -12 4 -12 3 -2 -5z"/>
<path d="M3237 6102 c6 -4 13 -21 16 -37 l4 -30 2 32 c0 17 7 34 14 36 6 3 -1
6 -18 6 -16 0 -25 -3 -18 -7z"/>
<path d="M3363 6075 c0 -22 2 -30 4 -17 2 12 2 30 0 40 -3 9 -5 -1 -4 -23z"/>
<path d="M6817 6102 c6 -4 13 -21 16 -37 l4 -30 2 32 c0 17 7 34 14 36 6 3 -1
6 -18 6 -16 0 -25 -3 -18 -7z"/>
<path d="M3304 6076 c-8 -20 3 -36 24 -35 14 0 13 2 -3 9 -18 8 -18 9 -2 9 10
1 17 6 15 13 -7 19 -27 21 -34 4z"/>
<path d="M3394 6076 c-8 -20 3 -36 24 -35 14 0 13 2 -3 9 -18 8 -18 9 -2 9 10
1 17 6 15 13 -7 19 -27 21 -34 4z"/>
<path d="M6884 6076 c-8 -20 3 -36 24 -35 14 0 13 2 -3 9 -18 8 -18 9 -2 9 10
1 17 6 15 13 -7 19 -27 21 -34 4z"/>
<path d="M6940 6065 c0 -14 2 -25 4 -25 2 0 6 11 8 25 3 14 1 25 -3 25 -5 0
-9 -11 -9 -25z"/>
<path d="M6970 6065 c0 -14 2 -25 4 -25 2 0 6 11 8 25 3 14 1 25 -3 25 -5 0
-9 -11 -9 -25z"/>
<path d="M7018 6082 c11 -7 11 -10 -2 -15 -23 -9 -20 -27 5 -27 15 0 20 5 17
22 -2 12 -10 23 -18 25 -12 4 -12 3 -2 -5z"/>
<path d="M7063 6074 c-8 -22 13 -42 30 -25 10 10 9 11 -5 6 -13 -5 -18 -2 -18
10 0 11 5 15 16 11 8 -3 12 -2 9 4 -9 15 -25 12 -32 -6z"/>
<path d="M7124 6076 c-8 -20 3 -36 24 -35 14 0 13 2 -3 9 -18 8 -18 9 -2 9 10
1 17 6 15 13 -7 19 -27 21 -34 4z"/>
<path d="M5092 6000 c-27 -26 -27 -26 2 -45 45 -30 91 19 49 51 -24 18 -26 17
-51 -6z"/>
<path d="M3559 5844 c-11 -14 -10 -18 6 -30 10 -8 26 -14 34 -14 9 0 195 -247
438 -582 370 -511 420 -583 410 -600 -10 -16 -9 -22 7 -34 11 -8 27 -14 37
-14 10 0 123 -147 310 -405 161 -222 295 -402 297 -400 2 2 -127 184 -287 404
-251 345 -290 404 -281 421 8 16 6 22 -14 36 -14 8 -29 14 -33 11 -4 -3 -200
259 -434 581 -367 504 -425 589 -415 604 9 15 8 21 -4 28 -23 15 -56 12 -71
-6z"/>
<path d="M6529 5683 c-78 -107 -122 -159 -136 -161 -30 -4 -49 -28 -34 -45 8
-11 -42 -86 -225 -338 -130 -178 -243 -332 -252 -342 -9 -10 -24 -16 -34 -14
-24 7 -44 -28 -28 -48 8 -10 -67 -119 -336 -490 -190 -262 -344 -478 -342
-480 2 -2 160 212 352 475 228 315 353 480 365 480 9 0 25 6 35 13 15 11 16
18 8 34 -10 18 19 62 231 354 172 236 249 335 264 337 31 5 49 28 34 45 -8 11
12 45 89 151 110 150 134 186 128 186 -2 0 -56 -71 -119 -157z"/>
<path d="M5092 5500 c-18 -17 -20 -24 -10 -40 7 -10 16 -16 20 -14 4 3 8 -375
8 -840 0 -509 -4 -847 -9 -851 -15 -9 -891 278 -891 293 0 17 -47 34 -68 24
-23 -12 -942 286 -942 305 0 18 -39 31 -76 26 -21 -3 -100 18 -249 66 -120 40
-219 70 -222 68 -2 -3 98 -38 223 -78 170 -55 228 -78 232 -91 5 -19 17 -22
67 -19 17 1 192 -51 390 -115 198 -64 404 -130 457 -147 71 -22 98 -35 101
-49 4 -15 13 -19 49 -17 32 2 153 -33 486 -141 l444 -144 -94 -32 c-63 -21
-100 -29 -114 -23 -28 10 -64 1 -64 -17 0 -7 -4 -15 -9 -18 -5 -3 -314 -105
-687 -226 -449 -146 -687 -219 -702 -215 -31 8 -62 -3 -62 -20 0 -12 -238 -94
-638 -220 -46 -15 -82 -28 -79 -31 2 -2 164 47 359 111 196 63 363 112 372
109 24 -9 66 4 66 21 0 8 2 15 5 15 3 0 310 99 682 220 529 173 685 220 710
215 36 -6 73 8 73 29 0 14 166 70 181 60 5 -3 9 -160 9 -360 l0 -356 -22 -19
-23 -20 23 -15 c22 -16 22 -19 22 -261 0 -242 0 -245 -22 -264 l-23 -19 25
-20 c31 -24 29 -24 60 0 l25 19 -23 23 c-22 24 -22 29 -22 266 0 206 2 243 15
248 8 4 15 15 15 25 0 11 -7 22 -15 25 -13 5 -15 55 -15 364 0 209 4 361 9
365 5 3 228 -66 495 -152 389 -127 486 -161 490 -176 4 -16 12 -19 43 -15 24
3 64 -4 108 -18 39 -13 238 -77 443 -144 260 -84 372 -125 372 -135 0 -18 41
-29 69 -20 13 4 96 -19 222 -60 111 -36 203 -64 206 -61 2 2 -88 34 -201 70
-143 46 -206 71 -206 81 0 17 -32 26 -75 23 -40 -4 -895 273 -895 289 0 19
-36 33 -68 27 -22 -4 -156 35 -516 152 l-488 158 129 44 c94 33 142 44 181 43
45 -1 55 2 59 17 7 27 1696 577 1761 573 35 -2 45 2 49 17 3 14 37 29 140 61
74 23 133 44 131 47 -3 2 -63 -15 -134 -37 -83 -27 -144 -41 -172 -40 -35 2
-45 -2 -48 -16 -4 -14 -188 -77 -862 -296 -715 -232 -863 -277 -891 -271 -29
6 -37 3 -55 -18 -15 -19 -55 -37 -149 -67 -70 -23 -132 -39 -137 -36 -6 4 -10
325 -10 846 l0 841 21 17 22 18 -23 21 c-29 27 -31 27 -58 2z"/>
<path d="M2010 4656 c0 -39 18 -48 41 -20 15 18 2 47 -25 52 -12 3 -16 -4 -16
-32z m35 -1 c0 -10 -6 -20 -12 -22 -8 -3 -13 5 -13 22 0 17 5 25 13 23 6 -3
12 -13 12 -23z"/>
<path d="M2150 4682 c0 -7 -9 -12 -19 -12 -24 0 -36 -16 -20 -26 8 -4 7 -9 -2
-15 -11 -7 -11 -9 2 -9 23 0 30 11 18 27 -9 10 -8 13 5 13 9 0 16 -8 16 -20 0
-11 4 -20 8 -20 9 0 7 58 -2 67 -3 4 -6 1 -6 -5z"/>
<path d="M7847 4682 c6 -4 13 -21 16 -37 l4 -30 2 32 c0 17 7 34 14 36 6 3 -1
6 -18 6 -16 0 -25 -3 -18 -7z"/>
<path d="M2082 4645 c0 -16 2 -22 5 -12 2 9 2 23 0 30 -3 6 -5 -1 -5 -18z"/>
<path d="M2198 4662 c11 -7 11 -10 -2 -15 -23 -9 -20 -27 5 -27 15 0 20 5 17
22 -2 12 -10 23 -18 25 -12 4 -12 3 -2 -5z"/>
<path d="M2241 4643 c1 -23 2 -24 6 -5 2 12 8 22 13 22 5 0 11 -10 13 -22 5
-20 5 -20 4 2 -1 15 -9 26 -19 28 -14 3 -18 -3 -17 -25z"/>
<path d="M2303 4654 c-8 -22 13 -42 30 -25 10 10 9 11 -5 6 -13 -5 -18 -2 -18
10 0 11 5 15 16 11 8 -3 12 -2 9 4 -9 15 -25 12 -32 -6z"/>
<path d="M2364 4656 c-8 -20 3 -36 24 -35 14 0 13 2 -3 9 -18 8 -18 9 -2 9 10
1 17 6 15 13 -7 19 -27 21 -34 4z"/>
<path d="M7914 4656 c-8 -20 3 -36 24 -35 14 0 13 2 -3 9 -18 8 -18 9 -2 9 10
1 17 6 15 13 -7 19 -27 21 -34 4z"/>
<path d="M7970 4645 c0 -14 2 -25 4 -25 2 0 6 11 8 25 3 14 1 25 -3 25 -5 0
-9 -11 -9 -25z"/>
<path d="M8000 4645 c0 -14 2 -25 4 -25 2 0 6 11 8 25 3 14 1 25 -3 25 -5 0
-9 -11 -9 -25z"/>
<path d="M8048 4662 c11 -7 11 -10 -2 -15 -23 -9 -20 -27 5 -27 15 0 20 5 17
22 -2 12 -10 23 -18 25 -12 4 -12 3 -2 -5z"/>
<path d="M8093 4654 c-8 -22 13 -42 30 -25 10 10 9 11 -5 6 -13 -5 -18 -2 -18
10 0 11 5 15 16 11 8 -3 12 -2 9 4 -9 15 -25 12 -32 -6z"/>
<path d="M8154 4656 c-8 -20 3 -36 24 -35 14 0 13 2 -3 9 -18 8 -18 9 -2 9 10
1 17 6 15 13 -7 19 -27 21 -34 4z"/>
<path d="M8258 4662 c11 -7 11 -10 -2 -15 -23 -9 -20 -27 5 -27 15 0 20 5 17
22 -2 12 -10 23 -18 25 -12 4 -12 3 -2 -5z"/>
<path d="M8300 4645 c0 -14 2 -25 4 -25 2 0 6 11 8 25 3 14 1 25 -3 25 -5 0
-9 -11 -9 -25z"/>
<path d="M8334 4656 c-8 -20 3 -36 24 -35 14 0 13 2 -3 9 -18 8 -18 9 -2 9 10
1 17 6 15 13 -7 19 -27 21 -34 4z"/>
<path d="M8408 4662 c11 -7 11 -10 -2 -15 -23 -9 -20 -27 5 -27 15 0 20 5 17
22 -2 12 -10 23 -18 25 -12 4 -12 3 -2 -5z"/>
<path d="M4850 3370 c-180 -250 -252 -341 -270 -346 -40 -11 -51 -23 -39 -45
15 -28 -71 -144 -112 -153 -20 -4 -29 -12 -29 -25 0 -11 4 -21 8 -23 5 -1
-173 -253 -395 -558 -368 -505 -445 -615 -415 -585 5 6 193 262 417 570 308
424 413 562 433 567 31 9 44 28 31 45 -16 19 76 143 106 143 31 0 51 25 35 45
-14 17 -40 -22 258 388 123 170 222 310 220 312 -2 2 -114 -149 -248 -335z"/>
<path d="M5140 3706 c0 -4 69 -103 153 -219 121 -167 154 -218 153 -242 -1
-26 3 -30 27 -33 31 -4 51 -33 52 -77 0 -24 5 -31 27 -35 22 -4 120 -133 553
-730 522 -718 545 -749 545 -738 0 3 -238 333 -529 734 -460 634 -527 730
-517 746 9 16 7 22 -8 34 -11 8 -27 14 -37 14 -9 0 -24 12 -34 26 -13 21 -14
28 -4 41 11 13 10 18 -6 29 -10 8 -26 14 -35 14 -9 0 -80 89 -169 213 -165
228 -171 235 -171 223z"/>
<path d="M2207 2795 c3 -16 8 -33 10 -38 8 -13 23 3 24 26 1 22 1 22 7 -1 4
-13 11 -24 16 -25 10 -2 29 54 21 61 -2 2 -7 -9 -11 -24 -7 -28 -8 -28 -13 -6
-8 31 -25 33 -30 2 l-3 -25 -14 30 -13 30 6 -30z"/>
<path d="M2303 2785 c0 -22 2 -30 4 -17 2 12 2 30 0 40 -3 9 -5 -1 -4 -23z"/>
<path d="M2331 2783 c0 -21 3 -31 6 -23 3 8 11 18 17 22 8 5 7 8 -1 8 -19 0
-16 18 5 23 13 4 11 5 -5 6 -20 1 -23 -4 -22 -36z"/>
<path d="M2393 2785 c0 -22 2 -30 4 -17 2 12 2 30 0 40 -3 9 -5 -1 -4 -23z"/>
<path d="M7841 2783 c1 -21 3 -31 6 -22 2 10 13 19 25 22 25 7 19 31 -10 35
-19 3 -22 -1 -21 -35z m39 17 c0 -5 -7 -10 -15 -10 -8 0 -15 5 -15 10 0 6 7
10 15 10 8 0 15 -4 15 -10z"/>
<path d="M7910 2775 c0 -14 2 -25 4 -25 2 0 6 11 8 25 3 14 1 25 -3 25 -5 0
-9 -11 -9 -25z"/>
<path d="M7942 2775 c0 -16 2 -22 5 -12 2 9 2 23 0 30 -3 6 -5 -1 -5 -18z"/>
<path d="M7973 2784 c-8 -22 13 -42 30 -25 10 10 9 11 -5 6 -13 -5 -18 -2 -18
10 0 11 5 15 16 11 8 -3 12 -2 9 4 -9 15 -25 12 -32 -6z"/>
<path d="M8034 2786 c-8 -20 3 -36 24 -35 14 0 13 2 -3 9 -18 8 -18 9 -2 9 10
1 17 6 15 13 -7 19 -27 21 -34 4z"/>
<path d="M3020 1365 c0 -32 3 -36 23 -33 17 2 22 10 22 33 0 23 -5 31 -22 33
-20 3 -23 -1 -23 -33z m40 15 c0 -5 -7 -10 -15 -10 -8 0 -15 5 -15 10 0 6 7
10 15 10 8 0 15 -4 15 -10z m0 -30 c0 -5 -7 -10 -15 -10 -8 0 -15 5 -15 10 0
6 7 10 15 10 8 0 15 -4 15 -10z"/>
<path d="M3166 1380 c-20 -21 -15 -50 9 -50 11 0 15 10 15 35 0 40 1 40 -24
15z m14 -25 c0 -8 -4 -15 -10 -15 -5 0 -10 7 -10 15 0 8 5 15 10 15 6 0 10 -7
10 -15z"/>
<path d="M6810 1365 c0 -32 3 -36 23 -33 17 2 22 10 22 33 0 23 -5 31 -22 33
-20 3 -23 -1 -23 -33z m40 15 c0 -5 -7 -10 -15 -10 -8 0 -15 5 -15 10 0 6 7
10 15 10 8 0 15 -4 15 -10z m0 -30 c0 -5 -7 -10 -15 -10 -8 0 -15 5 -15 10 0
6 7 10 15 10 8 0 15 -4 15 -10z"/>
<path d="M6938 1389 c-6 -17 2 -59 11 -59 8 0 6 58 -2 66 -3 3 -7 0 -9 -7z"/>
<path d="M6971 1363 c1 -23 3 -29 6 -15 2 12 9 22 14 22 5 0 10 -10 10 -22 1
-19 2 -20 6 -5 3 11 -4 27 -16 38 l-21 20 1 -38z"/>
<path d="M3094 1366 c-8 -20 3 -36 24 -35 14 0 13 2 -3 9 -18 8 -18 9 -2 9 10
1 17 6 15 13 -7 19 -27 21 -34 4z"/>
<path d="M3210 1355 c0 -14 2 -25 4 -25 2 0 6 11 8 25 3 14 1 25 -3 25 -5 0
-9 -11 -9 -25z"/>
<path d="M3243 1364 c-8 -21 13 -42 28 -27 13 13 5 43 -11 43 -6 0 -13 -7 -17
-16z m27 -9 c0 -8 -4 -15 -10 -15 -5 0 -10 7 -10 15 0 8 5 15 10 15 6 0 10 -7
10 -15z"/>
<path d="M3303 1364 c-8 -21 13 -42 28 -27 13 13 5 43 -11 43 -6 0 -13 -7 -17
-16z m27 -9 c0 -8 -4 -15 -10 -15 -5 0 -10 7 -10 15 0 8 5 15 10 15 6 0 10 -7
10 -15z"/>
<path d="M3361 1352 c2 -23 2 -24 6 -4 2 12 8 22 13 22 5 0 11 -10 13 -22 l4
-23 2 23 c1 27 18 29 24 2 4 -17 4 -17 3 2 -1 18 -8 23 -33 25 -30 3 -33 0
-32 -25z"/>
<path d="M6898 1372 c11 -7 11 -10 -2 -15 -23 -9 -20 -27 5 -27 15 0 20 5 17
22 -2 12 -10 23 -18 25 -12 4 -12 3 -2 -5z"/>
<path d="M7030 1355 c0 -14 2 -25 4 -25 2 0 6 11 8 25 3 14 1 25 -3 25 -5 0
-9 -11 -9 -25z"/>
<path d="M7063 1364 c-8 -21 13 -42 28 -27 13 13 5 43 -11 43 -6 0 -13 -7 -17
-16z m27 -9 c0 -8 -4 -15 -10 -15 -5 0 -10 7 -10 15 0 8 5 15 10 15 6 0 10 -7
10 -15z"/>
<path d="M7123 1364 c-8 -21 13 -42 28 -27 13 13 5 43 -11 43 -6 0 -13 -7 -17
-16z m27 -9 c0 -8 -4 -15 -10 -15 -5 0 -10 7 -10 15 0 8 5 15 10 15 6 0 10 -7
10 -15z"/>
<path d="M7181 1352 c2 -23 2 -24 6 -4 2 12 8 22 13 22 5 0 11 -10 13 -22 l4
-23 2 23 c1 27 18 29 24 2 4 -17 4 -17 3 2 -1 18 -8 23 -33 25 -30 3 -33 0
-32 -25z"/>
<path d="M4925 840 c-8 -14 3 -30 21 -30 8 0 14 -5 14 -11 0 -7 -9 -9 -21 -6
-16 4 -19 3 -11 -5 12 -12 42 -4 42 13 0 6 -9 13 -20 16 -11 3 -20 10 -20 15
0 6 9 8 20 5 11 -3 18 -1 14 4 -7 12 -31 11 -39 -1z"/>
<path d="M4993 815 c0 -22 2 -30 4 -17 2 12 2 30 0 40 -3 9 -5 -1 -4 -23z"/>
<path d="M5024 816 c-8 -20 3 -36 24 -35 14 0 13 2 -3 9 -18 8 -18 9 -2 9 10
1 17 6 15 13 -7 19 -27 21 -34 4z"/>
<path d="M5084 816 c-8 -20 3 -36 24 -35 14 0 13 2 -3 9 -18 8 -18 9 -2 9 10
1 17 6 15 13 -7 19 -27 21 -34 4z"/>
<path d="M5140 795 l0 -36 21 20 c23 21 20 51 -6 51 -11 0 -15 -10 -15 -35z
m30 10 c0 -8 -4 -15 -10 -15 -5 0 -10 7 -10 15 0 8 5 15 10 15 6 0 10 -7 10
-15z"/>
<path d="M5202 805 c0 -16 2 -22 5 -12 2 9 2 23 0 30 -3 6 -5 -1 -5 -18z"/>
<path d="M5231 803 c1 -23 2 -24 6 -5 2 12 8 22 13 22 5 0 11 -10 13 -22 5
-20 5 -20 4 2 -1 15 -9 26 -19 28 -14 3 -18 -3 -17 -25z"/>
<path d="M5295 818 c-8 -22 1 -53 16 -53 8 0 15 13 17 33 2 24 -1 32 -13 32
-8 0 -18 -6 -20 -12z m25 -13 c0 -8 -4 -15 -10 -15 -5 0 -10 7 -10 15 0 8 5
15 10 15 6 0 10 -7 10 -15z"/>
<path d="M2621 148 c-5 -13 -11 -34 -15 -48 -6 -21 -5 -22 4 -7 6 9 17 17 25
17 8 0 19 -8 25 -17 9 -15 10 -14 4 7 -11 41 -23 70 -29 70 -3 0 -9 -10 -14
-22z m23 -13 c3 -9 0 -15 -9 -15 -9 0 -12 6 -9 15 4 8 7 15 9 15 2 0 5 -7 9
-15z"/>
<path d="M2852 154 c-7 -8 -8 -14 -2 -14 5 0 10 -13 10 -30 0 -16 3 -30 8 -30
7 0 8 78 0 85 -1 1 -9 -3 -16 -11z"/>
<path d="M3138 160 c-5 -17 3 -80 11 -80 7 0 6 79 -2 86 -3 3 -7 0 -9 -6z"/>
<path d="M3239 153 c-8 -10 -9 -14 -2 -10 8 5 13 -5 16 -30 3 -35 4 -34 5 10
2 52 1 55 -19 30z"/>
<path d="M3331 123 c1 -27 4 -38 6 -25 2 12 10 22 17 22 8 0 21 -10 30 -22 15
-21 16 -21 7 -2 -7 14 -7 24 1 32 18 18 1 42 -32 42 -29 0 -30 -1 -29 -47z
m57 20 c2 -8 -6 -13 -22 -13 -17 0 -26 5 -26 16 0 19 41 16 48 -3z"/>
<path d="M3622 133 c-1 -30 -6 -43 -16 -43 -8 0 -17 6 -19 13 -4 9 -6 9 -6 -1
-1 -17 28 -27 40 -15 6 6 9 28 6 49 l-4 39 -1 -42z"/>
<path d="M3891 123 c2 -46 2 -46 8 -13 l7 35 7 -35 c6 -27 10 -32 17 -20 5 8
10 24 11 35 1 11 5 4 9 -15 7 -33 7 -32 8 15 1 46 0 48 -13 31 -8 -11 -15 -27
-15 -35 -1 -9 -7 -1 -15 17 -8 17 -17 32 -20 32 -3 0 -4 -21 -4 -47z"/>
<path d="M4258 160 c-5 -17 3 -80 11 -80 7 0 6 79 -2 86 -3 3 -7 0 -9 -6z"/>
<path d="M4354 156 c-9 -24 4 -49 21 -42 9 3 15 -1 15 -10 0 -12 -6 -15 -21
-11 -16 4 -19 3 -11 -5 22 -22 43 0 40 39 -3 40 -32 59 -44 29z m34 -13 c-5
-25 -28 -28 -28 -4 0 12 6 21 16 21 9 0 14 -7 12 -17z"/>
<path d="M4426 154 c-10 -26 -7 -32 14 -27 16 4 20 0 20 -17 0 -18 -4 -21 -21
-17 -16 4 -19 3 -11 -5 16 -16 42 -2 42 22 0 12 -9 24 -22 29 l-23 9 25 10
c23 10 23 11 4 11 -12 1 -25 -6 -28 -15z"/>
<path d="M4496 154 c-10 -26 -7 -32 14 -27 16 4 20 0 20 -17 0 -18 -4 -21 -21
-17 -16 4 -19 3 -11 -5 16 -16 42 -2 42 22 0 12 -9 24 -22 29 l-23 9 25 10
c23 10 23 11 4 11 -12 1 -25 -6 -28 -15z"/>
<path d="M4564 157 c-3 -9 -4 -28 -2 -44 2 -20 8 -28 23 -28 17 0 20 7 20 40
0 30 -4 41 -18 43 -9 2 -20 -3 -23 -11z m31 -32 c0 -16 -6 -30 -12 -32 -9 -3
-13 7 -13 32 0 25 4 35 13 33 6 -3 12 -17 12 -33z"/>
<path d="M4634 157 c-3 -9 -4 -28 -2 -44 2 -20 8 -28 23 -28 17 0 20 7 20 40
0 30 -4 41 -18 43 -9 2 -20 -3 -23 -11z m31 -32 c0 -16 -6 -30 -12 -32 -9 -3
-13 7 -13 32 0 25 4 35 13 33 6 -3 12 -17 12 -33z"/>
<path d="M4891 148 c-5 -13 -11 -34 -15 -48 -6 -21 -5 -22 4 -7 6 9 17 17 25
17 8 0 19 -8 25 -17 9 -15 10 -14 4 7 -11 41 -23 70 -29 70 -3 0 -9 -10 -14
-22z m23 -13 c3 -9 0 -15 -9 -15 -9 0 -12 6 -9 15 4 8 7 15 9 15 2 0 5 -7 9
-15z"/>
<path d="M5122 154 c-7 -8 -8 -14 -2 -14 5 0 10 -13 10 -30 0 -16 3 -30 8 -30
7 0 8 78 0 85 -1 1 -9 -3 -16 -11z"/>
<path d="M5408 160 c-5 -17 3 -80 11 -80 7 0 6 79 -2 86 -3 3 -7 0 -9 -6z"/>
<path d="M5509 153 c-8 -10 -9 -14 -2 -10 8 5 13 -5 16 -30 3 -35 4 -34 5 10
2 52 1 55 -19 30z"/>
<path d="M5601 123 c1 -27 4 -38 6 -25 2 12 10 22 17 22 8 0 21 -10 30 -22 15
-21 16 -21 7 -2 -7 14 -7 24 1 32 18 18 1 42 -32 42 -29 0 -30 -1 -29 -47z
m57 20 c2 -8 -6 -13 -22 -13 -17 0 -26 5 -26 16 0 19 41 16 48 -3z"/>
<path d="M5900 156 c0 -8 -8 -13 -17 -12 -14 1 -18 -7 -18 -29 0 -24 4 -30 23
-31 20 -1 22 3 22 42 0 24 -2 44 -5 44 -3 0 -5 -6 -5 -14z m-5 -41 c0 -10 -6
-20 -12 -22 -8 -3 -13 5 -13 22 0 17 5 25 13 23 6 -3 12 -13 12 -23z"/>
<path d="M6101 123 c1 -27 4 -38 6 -26 2 12 12 24 21 26 15 4 15 5 0 6 -26 2
-22 29 5 34 19 4 18 4 -5 6 -27 1 -28 -1 -27 -46z"/>
<path d="M6524 156 c-9 -24 4 -49 21 -42 9 3 15 -1 15 -10 0 -12 -6 -15 -21
-11 -16 4 -19 3 -11 -5 22 -22 43 0 40 39 -3 40 -32 59 -44 29z m34 -13 c-5
-25 -28 -28 -28 -4 0 12 6 21 16 21 9 0 14 -7 12 -17z"/>
<path d="M6596 161 c-3 -5 3 -7 14 -4 22 6 26 -7 8 -25 -9 -9 -9 -12 0 -12 7
0 12 -7 12 -16 0 -12 -6 -15 -21 -11 -16 4 -19 3 -11 -5 21 -21 41 -1 39 39
-2 37 -27 58 -41 34z"/>
<path d="M6669 153 c-8 -10 -9 -14 -2 -10 8 5 13 -5 16 -30 3 -35 4 -34 5 10
2 52 1 55 -19 30z"/>
<path d="M6736 154 c-10 -26 -7 -32 14 -27 16 4 20 0 20 -17 0 -18 -4 -21 -21
-17 -16 4 -19 3 -11 -5 16 -16 42 -2 42 22 0 12 -9 24 -22 29 l-23 9 25 10
c23 10 23 11 4 11 -12 1 -25 -6 -28 -15z"/>
<path d="M6804 157 c-3 -9 -4 -28 -2 -44 2 -20 8 -28 23 -28 17 0 20 7 20 40
0 30 -4 41 -18 43 -9 2 -20 -3 -23 -11z m31 -32 c0 -16 -6 -30 -12 -32 -9 -3
-13 7 -13 32 0 25 4 35 13 33 6 -3 12 -17 12 -33z"/>
<path d="M6902 128 l-2 -48 33 1 c29 2 29 2 5 6 -24 4 -27 10 -31 46 l-4 42
-1 -47z"/>
<path d="M7070 125 c0 -45 1 -46 28 -43 35 4 39 41 5 46 -13 2 -23 10 -23 18
0 16 36 19 43 4 3 -6 4 -5 3 2 -1 7 -15 14 -29 16 -26 3 -27 1 -27 -43z m50
-20 c0 -8 -9 -15 -20 -15 -11 0 -20 7 -20 15 0 8 9 15 20 15 11 0 20 -7 20
-15z"/>
<path d="M7153 125 c0 -27 2 -38 4 -22 2 15 2 37 0 50 -2 12 -4 0 -4 -28z"/>
<path d="M7421 123 c2 -46 2 -46 8 -13 l7 35 7 -35 c6 -27 10 -32 17 -20 5 8
10 24 11 35 1 11 5 4 9 -15 7 -33 7 -32 8 15 1 46 0 48 -13 31 -8 -11 -15 -27
-15 -35 -1 -9 -7 -1 -15 17 -8 17 -17 32 -20 32 -3 0 -4 -21 -4 -47z"/>
<path d="M7653 125 c0 -27 2 -38 4 -22 2 15 2 37 0 50 -2 12 -4 0 -4 -28z"/>
<path d="M2497 149 c-39 -22 -4 -79 35 -58 10 5 18 18 18 29 0 25 -30 41 -53
29z"/>
<path d="M4760 145 c-26 -31 13 -82 44 -56 19 16 21 42 4 59 -16 16 -33 15
-48 -3z"/>
<path d="M2681 101 c0 -25 3 -39 7 -31 4 8 14 15 22 15 10 0 15 10 15 30 0 24
-4 30 -22 31 -21 1 -23 -3 -22 -45z m39 14 c0 -26 -14 -33 -25 -15 -9 14 1 40
15 40 5 0 10 -11 10 -25z"/>
<path d="M2756 141 c-3 -5 3 -7 14 -4 11 3 20 0 20 -6 0 -6 -6 -11 -12 -11
-10 0 -9 -3 1 -9 10 -7 10 -10 1 -16 -7 -4 -17 -1 -22 6 -8 12 -9 11 -5 -1 2
-8 14 -16 26 -16 19 -1 22 3 19 30 -3 30 -29 48 -42 27z"/>
<path d="M2823 115 c0 -22 2 -30 4 -17 2 12 2 30 0 40 -3 9 -5 -1 -4 -23z"/>
<path d="M2891 111 c1 -35 2 -35 8 -7 9 42 29 44 34 4 l5 -33 -2 35 c-1 29 -5
35 -23 36 -20 1 -23 -3 -22 -35z"/>
<path d="M2957 143 c6 -4 13 -22 16 -38 4 -27 5 -27 3 4 0 21 -7 36 -16 38
-10 3 -11 2 -3 -4z"/>
<path d="M3007 144 c-4 -4 -7 -18 -7 -31 0 -26 26 -41 42 -25 8 8 5 9 -11 5
-12 -3 -21 -1 -21 6 0 6 9 11 21 11 14 0 19 5 17 17 -3 19 -29 29 -41 17z m33
-14 c0 -5 -7 -10 -15 -10 -8 0 -15 5 -15 10 0 6 7 10 15 10 8 0 15 -4 15 -10z"/>
<path d="M3071 111 c1 -35 2 -35 8 -7 9 42 29 44 34 4 l5 -33 -2 35 c-1 29 -5
35 -23 36 -20 1 -23 -3 -22 -35z"/>
<path d="M3423 118 c1 -26 7 -33 25 -34 19 -1 22 3 21 35 -1 35 -2 35 -8 7 -8
-40 -28 -44 -35 -7 l-6 31 3 -32z"/>
<path d="M3497 144 c-4 -4 -7 -18 -7 -31 0 -26 26 -41 42 -25 8 8 5 9 -11 5
-12 -3 -21 -1 -21 6 0 6 9 11 21 11 14 0 19 5 17 17 -3 19 -29 29 -41 17z m33
-14 c0 -5 -7 -10 -15 -10 -8 0 -15 5 -15 10 0 6 7 10 15 10 8 0 15 -4 15 -10z"/>
<path d="M3657 144 c-4 -4 -7 -18 -7 -31 0 -26 26 -41 42 -25 8 8 5 9 -11 5
-12 -3 -21 -1 -21 6 0 6 9 11 21 11 14 0 19 5 17 17 -3 19 -29 29 -41 17z m33
-14 c0 -5 -7 -10 -15 -10 -8 0 -15 5 -15 10 0 6 7 10 15 10 8 0 15 -4 15 -10z"/>
<path d="M3726 141 c-3 -5 3 -7 14 -4 11 3 20 0 20 -6 0 -6 -6 -11 -12 -11
-10 0 -9 -3 1 -9 10 -7 10 -10 1 -16 -7 -4 -17 -1 -22 6 -8 12 -9 11 -5 -1 2
-8 14 -16 26 -16 19 -1 22 3 19 30 -3 30 -29 48 -42 27z"/>
<path d="M3791 111 c1 -35 2 -35 8 -7 9 42 29 44 34 4 l5 -33 -2 35 c-1 29 -5
35 -23 36 -20 1 -23 -3 -22 -35z"/>
<path d="M3984 136 c-10 -26 0 -51 21 -51 16 0 20 7 20 30 0 33 -30 49 -41 21z
m36 -21 c0 -16 -6 -25 -15 -25 -9 0 -15 9 -15 25 0 16 6 25 15 25 9 0 15 -9
15 -25z"/>
<path d="M4051 111 c1 -35 2 -35 8 -7 9 42 29 44 34 4 l5 -33 -2 35 c-1 29 -5
35 -23 36 -20 1 -23 -3 -22 -35z"/>
<path d="M4121 111 c1 -35 2 -35 8 -7 9 42 29 44 34 4 l5 -33 -2 35 c-1 29 -5
35 -23 36 -20 1 -23 -3 -22 -35z"/>
<path d="M4197 144 c-4 -4 -7 -18 -7 -31 0 -26 26 -41 42 -25 8 8 5 9 -11 5
-12 -3 -21 -1 -21 6 0 6 9 11 21 11 14 0 19 5 17 17 -3 19 -29 29 -41 17z m33
-14 c0 -5 -7 -10 -15 -10 -8 0 -15 5 -15 10 0 6 7 10 15 10 8 0 15 -4 15 -10z"/>
<path d="M4951 101 c0 -25 3 -39 7 -31 4 8 14 15 22 15 10 0 15 10 15 30 0 24
-4 30 -22 31 -21 1 -23 -3 -22 -45z m39 14 c0 -26 -14 -33 -25 -15 -9 14 1 40
15 40 5 0 10 -11 10 -25z"/>
<path d="M5026 141 c-3 -5 3 -7 14 -4 11 3 20 0 20 -6 0 -6 -6 -11 -12 -11
-10 0 -9 -3 1 -9 10 -7 10 -10 1 -16 -7 -4 -17 -1 -22 6 -8 12 -9 11 -5 -1 2
-8 14 -16 26 -16 19 -1 22 3 19 30 -3 30 -29 48 -42 27z"/>
<path d="M5093 115 c0 -22 2 -30 4 -17 2 12 2 30 0 40 -3 9 -5 -1 -4 -23z"/>
<path d="M5161 111 c1 -35 2 -35 8 -7 9 42 29 44 34 4 l5 -33 -2 35 c-1 29 -5
35 -23 36 -20 1 -23 -3 -22 -35z"/>
<path d="M5227 143 c6 -4 13 -22 16 -38 4 -27 5 -27 3 4 0 21 -7 36 -16 38
-10 3 -11 2 -3 -4z"/>
<path d="M5277 144 c-4 -4 -7 -18 -7 -31 0 -26 26 -41 42 -25 8 8 5 9 -11 5
-12 -3 -21 -1 -21 6 0 6 9 11 21 11 14 0 19 5 17 17 -3 19 -29 29 -41 17z m33
-14 c0 -5 -7 -10 -15 -10 -8 0 -15 5 -15 10 0 6 7 10 15 10 8 0 15 -4 15 -10z"/>
<path d="M5341 111 c1 -35 2 -35 8 -7 9 42 29 44 34 4 l5 -33 -2 35 c-1 29 -5
35 -23 36 -20 1 -23 -3 -22 -35z"/>
<path d="M5693 118 c1 -26 7 -33 25 -34 19 -1 22 3 21 35 -1 35 -2 35 -8 7 -8
-40 -28 -44 -35 -7 l-6 31 3 -32z"/>
<path d="M5767 144 c-4 -4 -7 -18 -7 -31 0 -26 26 -41 42 -25 8 8 5 9 -11 5
-12 -3 -21 -1 -21 6 0 6 9 11 21 11 14 0 19 5 17 17 -3 19 -29 29 -41 17z m33
-14 c0 -5 -7 -10 -15 -10 -8 0 -15 5 -15 10 0 6 7 10 15 10 8 0 15 -4 15 -10z"/>
<path d="M5937 144 c-4 -4 -7 -18 -7 -31 0 -26 26 -41 42 -25 8 8 5 9 -11 5
-12 -3 -21 -1 -21 6 0 6 9 11 21 11 14 0 19 5 17 17 -3 19 -29 29 -41 17z m33
-14 c0 -5 -7 -10 -15 -10 -8 0 -15 5 -15 10 0 6 7 10 15 10 8 0 15 -4 15 -10z"/>
<path d="M6005 140 c-8 -14 3 -30 21 -30 8 0 14 -5 14 -11 0 -6 -9 -9 -20 -6
-11 3 -18 1 -14 -4 7 -13 31 -11 40 2 4 7 -4 20 -17 31 l-24 20 23 -5 c12 -3
20 -1 16 4 -7 12 -31 11 -39 -1z"/>
<path d="M6173 115 c0 -22 2 -30 4 -17 2 12 2 30 0 40 -3 9 -5 -1 -4 -23z"/>
<path d="M6217 144 c-4 -4 -7 -18 -7 -31 0 -26 26 -41 42 -25 8 8 5 9 -11 5
-12 -3 -21 -1 -21 6 0 6 9 11 21 11 14 0 19 5 17 17 -3 19 -29 29 -41 17z m33
-14 c0 -5 -7 -10 -15 -10 -8 0 -15 5 -15 10 0 6 7 10 15 10 8 0 15 -4 15 -10z"/>
<path d="M6283 115 c0 -22 2 -30 4 -17 2 12 2 30 0 40 -3 9 -5 -1 -4 -23z"/>
<path d="M6327 144 c-4 -4 -7 -18 -7 -31 0 -26 26 -41 42 -25 8 8 5 9 -11 5
-12 -3 -21 -1 -21 6 0 6 9 11 21 11 14 0 19 5 17 17 -3 19 -29 29 -41 17z m33
-14 c0 -5 -7 -10 -15 -10 -8 0 -15 5 -15 10 0 6 7 10 15 10 8 0 15 -4 15 -10z"/>
<path d="M6395 140 c-8 -14 3 -30 21 -30 8 0 14 -5 14 -11 0 -6 -9 -9 -20 -6
-11 3 -18 1 -14 -4 7 -13 31 -11 40 2 4 7 -4 20 -17 31 l-24 20 23 -5 c12 -3
20 -1 16 4 -7 12 -31 11 -39 -1z"/>
<path d="M6977 144 c-4 -4 -7 -18 -7 -31 0 -26 26 -41 42 -25 8 8 5 9 -11 5
-12 -3 -21 -1 -21 6 0 6 9 11 21 11 14 0 19 5 17 17 -3 19 -29 29 -41 17z m33
-14 c0 -5 -7 -10 -15 -10 -8 0 -15 5 -15 10 0 6 7 10 15 10 8 0 15 -4 15 -10z"/>
<path d="M7186 141 c-3 -5 3 -7 14 -4 11 3 20 0 20 -6 0 -6 -6 -11 -12 -11
-10 0 -9 -3 1 -9 10 -7 10 -10 1 -16 -7 -4 -17 -1 -22 6 -8 12 -9 11 -5 -1 2
-8 14 -16 26 -16 19 -1 22 3 19 30 -3 30 -29 48 -42 27z"/>
<path d="M7251 111 c1 -35 2 -35 8 -7 9 42 29 44 34 4 l5 -33 -2 35 c-1 29 -5
35 -23 36 -20 1 -23 -3 -22 -35z"/>
<path d="M7327 143 c-11 -10 -8 -51 4 -59 6 -3 16 -1 22 5 9 9 8 11 -5 6 -15
-6 -18 -2 -18 20 0 20 4 26 16 21 8 -3 12 -2 9 4 -7 12 -19 13 -28 3z"/>
<path d="M7517 144 c-4 -4 -7 -18 -7 -31 0 -26 26 -41 42 -25 8 8 5 9 -11 5
-12 -3 -21 -1 -21 6 0 6 9 11 21 11 14 0 19 5 17 17 -3 19 -29 29 -41 17z m33
-14 c0 -5 -7 -10 -15 -10 -8 0 -15 5 -15 10 0 6 7 10 15 10 8 0 15 -4 15 -10z"/>
<path d="M7585 140 c-8 -14 3 -30 21 -30 8 0 14 -5 14 -11 0 -6 -9 -9 -20 -6
-11 3 -18 1 -14 -4 7 -13 31 -11 40 2 4 7 -4 20 -17 31 l-24 20 23 -5 c12 -3
20 -1 16 4 -7 12 -31 11 -39 -1z"/>
<path d="M7683 115 c0 -22 2 -30 4 -17 2 12 2 30 0 40 -3 9 -5 -1 -4 -23z"/>
<path d="M7711 111 c1 -35 2 -35 8 -7 9 42 29 44 34 4 l5 -33 -2 35 c-1 29 -5
35 -23 36 -20 1 -23 -3 -22 -35z"/>
<path d="M7378 113 c7 -3 16 -2 19 1 4 3 -2 6 -13 5 -11 0 -14 -3 -6 -6z"/>
<path d="M4291 74 c0 -11 3 -14 6 -6 3 7 2 16 -1 19 -3 4 -6 -2 -5 -13z"/>
<path d="M6461 74 c0 -11 3 -14 6 -6 3 7 2 16 -1 19 -3 4 -6 -2 -5 -13z"/>
</g>
</svg>
